ply
format ascii 1.0
comment VCGLIB generated
comment TextureFile side_building_t0.png
comment TextureFile side_building_t1.png
element vertex 16
property float x
property float y
property float z
element face 24
property list uchar int vertex_indices
property list uchar float texcoord
end_header
-3.13645 -8.07916 12.7199 
9.57512 -8.07916 12.7199 
-3.13645 8.96803 12.7199 
9.57512 8.96803 12.7199 
-3.13645 8.96803 -12.4822 
9.57512 8.96803 -12.4822 
-3.13645 -8.07916 -12.4822 
9.57512 -8.07916 -12.4822 
-11.2343 -8.05775 12.7181 
-3.13625 -8.05775 12.7181 
-11.2343 1.18876 12.7181 
-3.13625 1.18876 12.7181 
-11.2343 1.18876 -12.4641 
-3.13625 1.18876 -12.4641 
-11.2343 -8.05775 -12.4641 
-3.13625 -8.05775 -12.4641 
3 0 1 3 6 0.188401 0 0.489738 0 0.489738 1.00165 
3 0 3 2 6 0.188401 0 0.489738 1.00165 0.191 1.00165 
3 2 3 5 6 0.191 1.00165 0.489738 1.00165 0.489738 1.10368 
3 2 5 4 6 0.191 1.00165 0.489738 1.10368 0.193599 1.10368 
3 4 5 7 6 0.193599 1.10368 0.489738 1.10368 0.489738 1.35368 
3 4 7 6 6 0.193599 1.10368 0.489738 1.35368 0.193599 1.35368 
3 6 7 1 6 0.193599 1.35368 0.489738 1.35368 0.489738 1.60368 
3 6 1 0 6 0.193599 1.35368 0.489738 1.60368 0.193599 1.60368 
3 1 7 5 6 0.489738 0 0.998619 0 0.998619 1.00165 
3 1 5 3 6 0.489738 0 0.998619 1.00165 0.489738 1.00165 
3 6 0 2 6 -0.639759 0 0.188401 0 0.191 1.00165 
3 6 2 4 6 -0.639759 0 0.191 1.00165 -0.681351 0.999047 
3 8 9 11 6 0.007082 0.004704 0.194046 0.004704 0.194046 0.496142 
3 8 11 10 6 0.007082 0.004704 0.194046 0.496142 0.007082 0.496142 
3 10 11 13 6 0.007082 0.496142 0.194046 0.496142 0.194046 1.07423 
3 10 13 12 6 0.007082 0.496142 0.194046 1.07423 0.007082 1.07423 
3 12 13 15 6 0.007082 1.07423 0.194046 1.07423 0.194046 1.32423 
3 12 15 14 6 0.007082 1.07423 0.194046 1.32423 0.007082 1.32423 
3 14 15 9 6 0.007082 1.32423 0.194046 1.32423 0.194046 1.57423 
3 14 9 8 6 0.007082 1.32423 0.194046 1.57423 0.007082 1.57423 
3 9 15 13 6 0.194046 0.004704 1.32342 0.004704 1.32342 0.496142 
3 9 13 11 6 0.194046 0.004704 1.32342 0.496142 0.194046 0.496142 
3 14 8 10 6 -0.239589 0.004704 0.007082 0.004704 0.007082 0.496142 
3 14 10 12 6 -0.239589 0.004704 0.007082 0.496142 -0.239589 0.496142 
