ply
format ascii 1.0
comment VCGLIB generated
comment TextureFile test_tex.jpg
element vertex 294
property float x
property float y
property float z
property float texture_u
property float texture_v
element face 432
property list uchar int vertex_indices
end_header
-2.20001 2.20001 2.20001 0 0
2.20001 2.20001 2.20001 1 0
2.20001 2.20001 -2.20001 1 1
-2.20001 2.20001 -2.20001 0 1
2.20001 2.20001 0 1 0.5
-2.20001 2.20001 0 0 0.5
-0 2.20001 2.20001 0.5 0
-0 2.20001 0 0.5 0.5
-0 2.20001 1.46667 0.5 0.166667
-2.20001 2.20001 1.46667 0 0.166667
-1.46667 2.20001 2.20001 0.166667 0
-1.46667 2.20001 1.46667 0.166667 0.166667
-0.733336 2.20001 2.20001 0.333333 0
-0.733336 2.20001 1.46667 0.333333 0.166667
-1.46667 2.20001 0 0.166667 0.5
-2.20001 2.20001 0.733336 0 0.333333
-1.46667 2.20001 0.733336 0.166667 0.333333
-0 2.20001 0.733336 0.5 0.333333
-0.733336 2.20001 0.733336 0.333333 0.333333
-0.733336 2.20001 0 0.333333 0.5
2.20001 2.20001 1.46667 1 0.166667
0.733336 2.20001 2.20001 0.666667 0
0.733336 2.20001 1.46667 0.666667 0.166667
1.46667 2.20001 2.20001 0.833333 0
1.46667 2.20001 1.46667 0.833333 0.166667
0.733336 2.20001 0 0.666667 0.5
0.733336 2.20001 0.733336 0.666667 0.333333
2.20001 2.20001 0.733336 1 0.333333
1.46667 2.20001 0.733336 0.833333 0.333333
1.46667 2.20001 0 0.833333 0.5
-0 2.20001 -2.20001 0.5 1
-2.20001 2.20001 -0.733336 0 0.666667
-0 2.20001 -0.733336 0.5 0.666667
-1.46667 2.20001 -0.733336 0.166667 0.666667
-0.733336 2.20001 -0.733336 0.333333 0.666667
-1.46667 2.20001 -2.20001 0.166667 1
-2.20001 2.20001 -1.46667 0 0.833333
-1.46667 2.20001 -1.46667 0.166667 0.833333
-0 2.20001 -1.46667 0.5 0.833333
-0.733336 2.20001 -1.46667 0.333333 0.833333
-0.733336 2.20001 -2.20001 0.333333 1
2.20001 2.20001 -0.733336 1 0.666667
0.733336 2.20001 -0.733336 0.666667 0.666667
1.46667 2.20001 -0.733336 0.833333 0.666667
0.733336 2.20001 -2.20001 0.666667 1
0.733336 2.20001 -1.46667 0.666667 0.833333
2.20001 2.20001 -1.46667 1 0.833333
1.46667 2.20001 -1.46667 0.833333 0.833333
1.46667 2.20001 -2.20001 0.833333 1
-2.20001 -2.20001 2.20001 0 0
-2.20001 -2.20001 -2.20001 1 0
2.20001 -2.20001 -2.20001 1 1
2.20001 -2.20001 2.20001 0 1
0 -2.20001 -2.20001 1 0.5
0 -2.20001 2.20001 0 0.5
-2.20001 -2.20001 0 0.5 0
0 -2.20001 0 0.5 0.5
-1.46667 -2.20001 0 0.5 0.166667
-1.46667 -2.20001 2.20001 0 0.166667
-2.20001 -2.20001 1.46667 0.166667 0
-1.46667 -2.20001 1.46667 0.166667 0.166667
-2.20001 -2.20001 0.733336 0.333333 0
-1.46667 -2.20001 0.733336 0.333333 0.166667
0 -2.20001 1.46667 0.166667 0.5
-0.733336 -2.20001 2.20001 0 0.333333
-0.733336 -2.20001 1.46667 0.166667 0.333333
-0.733336 -2.20001 0 0.5 0.333333
-0.733336 -2.20001 0.733336 0.333333 0.333333
0 -2.20001 0.733336 0.333333 0.5
-1.46667 -2.20001 -2.20001 1 0.166667
-2.20001 -2.20001 -0.733336 0.666667 0
-1.46667 -2.20001 -0.733336 0.666667 0.166667
-2.20001 -2.20001 -1.46667 0.833333 0
-1.46667 -2.20001 -1.46667 0.833333 0.166667
0 -2.20001 -0.733336 0.666667 0.5
-0.733336 -2.20001 -0.733336 0.666667 0.333333
-0.733336 -2.20001 -2.20001 1 0.333333
-0.733336 -2.20001 -1.46667 0.833333 0.333333
0 -2.20001 -1.46667 0.833333 0.5
2.20001 -2.20001 0 0.5 1
0.733336 -2.20001 2.20001 0 0.666667
0.733336 -2.20001 0 0.5 0.666667
0.733336 -2.20001 1.46667 0.166667 0.666667
0.733336 -2.20001 0.733336 0.333333 0.666667
2.20001 -2.20001 1.46667 0.166667 1
1.46667 -2.20001 2.20001 0 0.833333
1.46667 -2.20001 1.46667 0.166667 0.833333
1.46667 -2.20001 0 0.5 0.833333
1.46667 -2.20001 0.733336 0.333333 0.833333
2.20001 -2.20001 0.733336 0.333333 1
0.733336 -2.20001 -2.20001 1 0.666667
0.733336 -2.20001 -0.733336 0.666667 0.666667
0.733336 -2.20001 -1.46667 0.833333 0.666667
2.20001 -2.20001 -0.733336 0.666667 1
1.46667 -2.20001 -0.733336 0.666667 0.833333
1.46667 -2.20001 -2.20001 1 0.833333
1.46667 -2.20001 -1.46667 0.833333 0.833333
2.20001 -2.20001 -1.46667 0.833333 1
-2.20001 -2.20001 2.20001 0 0
2.20001 -2.20001 2.20001 1 0
2.20001 2.20001 2.20001 1 1
-2.20001 2.20001 2.20001 0 1
2.20001 -0 2.20001 1 0.5
-2.20001 -0 2.20001 0 0.5
-0 -2.20001 2.20001 0.5 0
-0 -0 2.20001 0.5 0.5
-0 -1.46667 2.20001 0.5 0.166667
-2.20001 -1.46667 2.20001 0 0.166667
-1.46667 -2.20001 2.20001 0.166667 0
-1.46667 -1.46667 2.20001 0.166667 0.166667
-0.733336 -2.20001 2.20001 0.333333 0
-0.733336 -1.46667 2.20001 0.333333 0.166667
-1.46667 -0 2.20001 0.166667 0.5
-2.20001 -0.733336 2.20001 0 0.333333
-1.46667 -0.733336 2.20001 0.166667 0.333333
-0 -0.733336 2.20001 0.5 0.333333
-0.733336 -0.733336 2.20001 0.333333 0.333333
-0.733336 -0 2.20001 0.333333 0.5
2.20001 -1.46667 2.20001 1 0.166667
0.733336 -2.20001 2.20001 0.666667 0
0.733336 -1.46667 2.20001 0.666667 0.166667
1.46667 -2.20001 2.20001 0.833333 0
1.46667 -1.46667 2.20001 0.833333 0.166667
0.733336 -0 2.20001 0.666667 0.5
0.733336 -0.733336 2.20001 0.666667 0.333333
2.20001 -0.733336 2.20001 1 0.333333
1.46667 -0.733336 2.20001 0.833333 0.333333
1.46667 -0 2.20001 0.833333 0.5
-0 2.20001 2.20001 0.5 1
-2.20001 0.733336 2.20001 0 0.666667
-0 0.733336 2.20001 0.5 0.666667
-1.46667 0.733336 2.20001 0.166667 0.666667
-0.733336 0.733336 2.20001 0.333333 0.666667
-1.46667 2.20001 2.20001 0.166667 1
-2.20001 1.46667 2.20001 0 0.833333
-1.46667 1.46667 2.20001 0.166667 0.833333
-0 1.46667 2.20001 0.5 0.833333
-0.733336 1.46667 2.20001 0.333333 0.833333
-0.733336 2.20001 2.20001 0.333333 1
2.20001 0.733336 2.20001 1 0.666667
0.733336 0.733336 2.20001 0.666667 0.666667
1.46667 0.733336 2.20001 0.833333 0.666667
0.733336 2.20001 2.20001 0.666667 1
0.733336 1.46667 2.20001 0.666667 0.833333
2.20001 1.46667 2.20001 1 0.833333
1.46667 1.46667 2.20001 0.833333 0.833333
1.46667 2.20001 2.20001 0.833333 1
-2.20001 -2.20001 -2.20001 0 0
-2.20001 2.20001 -2.20001 1 0
2.20001 2.20001 -2.20001 1 1
2.20001 -2.20001 -2.20001 0 1
0 2.20001 -2.20001 1 0.5
0 -2.20001 -2.20001 0 0.5
-2.20001 -0 -2.20001 0.5 0
0 -0 -2.20001 0.5 0.5
-1.46667 -0 -2.20001 0.5 0.166667
-1.46667 -2.20001 -2.20001 0 0.166667
-2.20001 -1.46667 -2.20001 0.166667 0
-1.46667 -1.46667 -2.20001 0.166667 0.166667
-2.20001 -0.733336 -2.20001 0.333333 0
-1.46667 -0.733336 -2.20001 0.333333 0.166667
0 -1.46667 -2.20001 0.166667 0.5
-0.733336 -2.20001 -2.20001 0 0.333333
-0.733336 -1.46667 -2.20001 0.166667 0.333333
-0.733336 -0 -2.20001 0.5 0.333333
-0.733336 -0.733336 -2.20001 0.333333 0.333333
0 -0.733336 -2.20001 0.333333 0.5
-1.46667 2.20001 -2.20001 1 0.166667
-2.20001 0.733336 -2.20001 0.666667 0
-1.46667 0.733336 -2.20001 0.666667 0.166667
-2.20001 1.46667 -2.20001 0.833333 0
-1.46667 1.46667 -2.20001 0.833333 0.166667
0 0.733336 -2.20001 0.666667 0.5
-0.733336 0.733336 -2.20001 0.666667 0.333333
-0.733336 2.20001 -2.20001 1 0.333333
-0.733336 1.46667 -2.20001 0.833333 0.333333
0 1.46667 -2.20001 0.833333 0.5
2.20001 -0 -2.20001 0.5 1
0.733336 -2.20001 -2.20001 0 0.666667
0.733336 -0 -2.20001 0.5 0.666667
0.733336 -1.46667 -2.20001 0.166667 0.666667
0.733336 -0.733336 -2.20001 0.333333 0.666667
2.20001 -1.46667 -2.20001 0.166667 1
1.46667 -2.20001 -2.20001 0 0.833333
1.46667 -1.46667 -2.20001 0.166667 0.833333
1.46667 -0 -2.20001 0.5 0.833333
1.46667 -0.733336 -2.20001 0.333333 0.833333
2.20001 -0.733336 -2.20001 0.333333 1
0.733336 2.20001 -2.20001 1 0.666667
0.733336 0.733336 -2.20001 0.666667 0.666667
0.733336 1.46667 -2.20001 0.833333 0.666667
2.20001 0.733336 -2.20001 0.666667 1
1.46667 0.733336 -2.20001 0.666667 0.833333
1.46667 2.20001 -2.20001 1 0.833333
1.46667 1.46667 -2.20001 0.833333 0.833333
2.20001 1.46667 -2.20001 0.833333 1
2.20001 -2.20001 2.20001 0 0
2.20001 -2.20001 -2.20001 1 0
2.20001 2.20001 -2.20001 1 1
2.20001 2.20001 2.20001 0 1
2.20001 -0 -2.20001 1 0.5
2.20001 -0 2.20001 0 0.5
2.20001 -2.20001 0 0.5 0
2.20001 -0 0 0.5 0.5
2.20001 -1.46667 0 0.5 0.166667
2.20001 -1.46667 2.20001 0 0.166667
2.20001 -2.20001 1.46667 0.166667 0
2.20001 -1.46667 1.46667 0.166667 0.166667
2.20001 -2.20001 0.733336 0.333333 0
2.20001 -1.46667 0.733336 0.333333 0.166667
2.20001 -0 1.46667 0.166667 0.5
2.20001 -0.733336 2.20001 0 0.333333
2.20001 -0.733336 1.46667 0.166667 0.333333
2.20001 -0.733336 0 0.5 0.333333
2.20001 -0.733336 0.733336 0.333333 0.333333
2.20001 -0 0.733336 0.333333 0.5
2.20001 -1.46667 -2.20001 1 0.166667
2.20001 -2.20001 -0.733336 0.666667 0
2.20001 -1.46667 -0.733336 0.666667 0.166667
2.20001 -2.20001 -1.46667 0.833333 0
2.20001 -1.46667 -1.46667 0.833333 0.166667
2.20001 -0 -0.733336 0.666667 0.5
2.20001 -0.733336 -0.733336 0.666667 0.333333
2.20001 -0.733336 -2.20001 1 0.333333
2.20001 -0.733336 -1.46667 0.833333 0.333333
2.20001 -0 -1.46667 0.833333 0.5
2.20001 2.20001 0 0.5 1
2.20001 0.733336 2.20001 0 0.666667
2.20001 0.733336 0 0.5 0.666667
2.20001 0.733336 1.46667 0.166667 0.666667
2.20001 0.733336 0.733336 0.333333 0.666667
2.20001 2.20001 1.46667 0.166667 1
2.20001 1.46667 2.20001 0 0.833333
2.20001 1.46667 1.46667 0.166667 0.833333
2.20001 1.46667 0 0.5 0.833333
2.20001 1.46667 0.733336 0.333333 0.833333
2.20001 2.20001 0.733336 0.333333 1
2.20001 0.733336 -2.20001 1 0.666667
2.20001 0.733336 -0.733336 0.666667 0.666667
2.20001 0.733336 -1.46667 0.833333 0.666667
2.20001 2.20001 -0.733336 0.666667 1
2.20001 1.46667 -0.733336 0.666667 0.833333
2.20001 1.46667 -2.20001 1 0.833333
2.20001 1.46667 -1.46667 0.833333 0.833333
2.20001 2.20001 -1.46667 0.833333 1
-2.20001 -2.20001 2.20001 0 0
-2.20001 2.20001 2.20001 1 0
-2.20001 2.20001 -2.20001 1 1
-2.20001 -2.20001 -2.20001 0 1
-2.20001 2.20001 0 1 0.5
-2.20001 -2.20001 0 0 0.5
-2.20001 -0 2.20001 0.5 0
-2.20001 -0 0 0.5 0.5
-2.20001 -0 1.46667 0.5 0.166667
-2.20001 -2.20001 1.46667 0 0.166667
-2.20001 -1.46667 2.20001 0.166667 0
-2.20001 -1.46667 1.46667 0.166667 0.166667
-2.20001 -0.733336 2.20001 0.333333 0
-2.20001 -0.733336 1.46667 0.333333 0.166667
-2.20001 -1.46667 0 0.166667 0.5
-2.20001 -2.20001 0.733336 0 0.333333
-2.20001 -1.46667 0.733336 0.166667 0.333333
-2.20001 -0 0.733336 0.5 0.333333
-2.20001 -0.733336 0.733336 0.333333 0.333333
-2.20001 -0.733336 0 0.333333 0.5
-2.20001 2.20001 1.46667 1 0.166667
-2.20001 0.733336 2.20001 0.666667 0
-2.20001 0.733336 1.46667 0.666667 0.166667
-2.20001 1.46667 2.20001 0.833333 0
-2.20001 1.46667 1.46667 0.833333 0.166667
-2.20001 0.733336 0 0.666667 0.5
-2.20001 0.733336 0.733336 0.666667 0.333333
-2.20001 2.20001 0.733336 1 0.333333
-2.20001 1.46667 0.733336 0.833333 0.333333
-2.20001 1.46667 0 0.833333 0.5
-2.20001 -0 -2.20001 0.5 1
-2.20001 -2.20001 -0.733336 0 0.666667
-2.20001 -0 -0.733336 0.5 0.666667
-2.20001 -1.46667 -0.733336 0.166667 0.666667
-2.20001 -0.733336 -0.733336 0.333333 0.666667
-2.20001 -1.46667 -2.20001 0.166667 1
-2.20001 -2.20001 -1.46667 0 0.833333
-2.20001 -1.46667 -1.46667 0.166667 0.833333
-2.20001 -0 -1.46667 0.5 0.833333
-2.20001 -0.733336 -1.46667 0.333333 0.833333
-2.20001 -0.733336 -2.20001 0.333333 1
-2.20001 2.20001 -0.733336 1 0.666667
-2.20001 0.733336 -0.733336 0.666667 0.666667
-2.20001 1.46667 -0.733336 0.833333 0.666667
-2.20001 0.733336 -2.20001 0.666667 1
-2.20001 0.733336 -1.46667 0.666667 0.833333
-2.20001 2.20001 -1.46667 1 0.833333
-2.20001 1.46667 -1.46667 0.833333 0.833333
-2.20001 1.46667 -2.20001 0.833333 1
3 46 2 47 
3 27 4 28 
3 17 7 18 
3 12 6 8 
3 0 10 11 
3 10 12 13 
3 15 16 14 
3 9 11 16 
3 8 17 13 
3 11 13 18 
3 16 18 19 
3 23 1 20 
3 6 21 22 
3 21 23 24 
3 17 26 25 
3 8 22 26 
3 20 27 24 
3 22 24 28 
3 26 28 29 
3 39 38 30 
3 19 7 32 
3 5 14 33 
3 14 19 34 
3 36 37 35 
3 31 33 37 
3 34 32 38 
3 33 34 39 
3 37 39 40 
3 4 41 29 
3 7 25 42 
3 25 29 43 
3 38 45 44 
3 32 42 45 
3 41 46 43 
3 42 43 47 
3 45 47 48 
3 2 48 47 
3 4 29 28 
3 7 19 18 
3 8 13 12 
3 11 9 0 
3 13 11 10 
3 14 5 15 
3 16 15 9 
3 17 18 13 
3 18 16 11 
3 19 14 16 
3 20 24 23 
3 22 8 6 
3 24 22 21 
3 25 7 17 
3 26 17 8 
3 27 28 24 
3 28 26 22 
3 29 25 26 
3 30 40 39 
3 32 34 19 
3 33 31 5 
3 34 33 14 
3 35 3 36 
3 37 36 31 
3 38 39 34 
3 39 37 33 
3 40 35 37 
3 41 43 29 
3 42 32 7 
3 43 42 25 
3 44 30 38 
3 45 38 32 
3 46 47 43 
3 47 45 42 
3 48 44 45 
3 95 51 96 
3 76 53 77 
3 66 56 67 
3 61 55 57 
3 49 59 60 
3 59 61 62 
3 64 65 63 
3 58 60 65 
3 57 66 62 
3 60 62 67 
3 65 67 68 
3 72 50 69 
3 55 70 71 
3 70 72 73 
3 66 75 74 
3 57 71 75 
3 69 76 73 
3 71 73 77 
3 75 77 78 
3 88 87 79 
3 68 56 81 
3 54 63 82 
3 63 68 83 
3 85 86 84 
3 80 82 86 
3 83 81 87 
3 82 83 88 
3 86 88 89 
3 53 90 78 
3 56 74 91 
3 74 78 92 
3 87 94 93 
3 81 91 94 
3 90 95 92 
3 91 92 96 
3 94 96 97 
3 51 97 96 
3 53 78 77 
3 56 68 67 
3 57 62 61 
3 60 58 49 
3 62 60 59 
3 63 54 64 
3 65 64 58 
3 66 67 62 
3 67 65 60 
3 68 63 65 
3 69 73 72 
3 71 57 55 
3 73 71 70 
3 74 56 66 
3 75 66 57 
3 76 77 73 
3 77 75 71 
3 78 74 75 
3 79 89 88 
3 81 83 68 
3 82 80 54 
3 83 82 63 
3 84 52 85 
3 86 85 80 
3 87 88 83 
3 88 86 82 
3 89 84 86 
3 90 92 78 
3 91 81 56 
3 92 91 74 
3 93 79 87 
3 94 87 81 
3 95 96 92 
3 96 94 91 
3 97 93 94 
3 144 100 145 
3 125 102 126 
3 115 105 116 
3 110 104 106 
3 98 108 109 
3 108 110 111 
3 113 114 112 
3 107 109 114 
3 106 115 111 
3 109 111 116 
3 114 116 117 
3 121 99 118 
3 104 119 120 
3 119 121 122 
3 115 124 123 
3 106 120 124 
3 118 125 122 
3 120 122 126 
3 124 126 127 
3 137 136 128 
3 117 105 130 
3 103 112 131 
3 112 117 132 
3 134 135 133 
3 129 131 135 
3 132 130 136 
3 131 132 137 
3 135 137 138 
3 102 139 127 
3 105 123 140 
3 123 127 141 
3 136 143 142 
3 130 140 143 
3 139 144 141 
3 140 141 145 
3 143 145 146 
3 100 146 145 
3 102 127 126 
3 105 117 116 
3 106 111 110 
3 109 107 98 
3 111 109 108 
3 112 103 113 
3 114 113 107 
3 115 116 111 
3 116 114 109 
3 117 112 114 
3 118 122 121 
3 120 106 104 
3 122 120 119 
3 123 105 115 
3 124 115 106 
3 125 126 122 
3 126 124 120 
3 127 123 124 
3 128 138 137 
3 130 132 117 
3 131 129 103 
3 132 131 112 
3 133 101 134 
3 135 134 129 
3 136 137 132 
3 137 135 131 
3 138 133 135 
3 139 141 127 
3 140 130 105 
3 141 140 123 
3 142 128 136 
3 143 136 130 
3 144 145 141 
3 145 143 140 
3 146 142 143 
3 193 149 194 
3 174 151 175 
3 164 154 165 
3 159 153 155 
3 147 157 158 
3 157 159 160 
3 162 163 161 
3 156 158 163 
3 155 164 160 
3 158 160 165 
3 163 165 166 
3 170 148 167 
3 153 168 169 
3 168 170 171 
3 164 173 172 
3 155 169 173 
3 167 174 171 
3 169 171 175 
3 173 175 176 
3 186 185 177 
3 166 154 179 
3 152 161 180 
3 161 166 181 
3 183 184 182 
3 178 180 184 
3 181 179 185 
3 180 181 186 
3 184 186 187 
3 151 188 176 
3 154 172 189 
3 172 176 190 
3 185 192 191 
3 179 189 192 
3 188 193 190 
3 189 190 194 
3 192 194 195 
3 149 195 194 
3 151 176 175 
3 154 166 165 
3 155 160 159 
3 158 156 147 
3 160 158 157 
3 161 152 162 
3 163 162 156 
3 164 165 160 
3 165 163 158 
3 166 161 163 
3 167 171 170 
3 169 155 153 
3 171 169 168 
3 172 154 164 
3 173 164 155 
3 174 175 171 
3 175 173 169 
3 176 172 173 
3 177 187 186 
3 179 181 166 
3 180 178 152 
3 181 180 161 
3 182 150 183 
3 184 183 178 
3 185 186 181 
3 186 184 180 
3 187 182 184 
3 188 190 176 
3 189 179 154 
3 190 189 172 
3 191 177 185 
3 192 185 179 
3 193 194 190 
3 194 192 189 
3 195 191 192 
3 242 198 243 
3 223 200 224 
3 213 203 214 
3 208 202 204 
3 196 206 207 
3 206 208 209 
3 211 212 210 
3 205 207 212 
3 204 213 209 
3 207 209 214 
3 212 214 215 
3 219 197 216 
3 202 217 218 
3 217 219 220 
3 213 222 221 
3 204 218 222 
3 216 223 220 
3 218 220 224 
3 222 224 225 
3 235 234 226 
3 215 203 228 
3 201 210 229 
3 210 215 230 
3 232 233 231 
3 227 229 233 
3 230 228 234 
3 229 230 235 
3 233 235 236 
3 200 237 225 
3 203 221 238 
3 221 225 239 
3 234 241 240 
3 228 238 241 
3 237 242 239 
3 238 239 243 
3 241 243 244 
3 198 244 243 
3 200 225 224 
3 203 215 214 
3 204 209 208 
3 207 205 196 
3 209 207 206 
3 210 201 211 
3 212 211 205 
3 213 214 209 
3 214 212 207 
3 215 210 212 
3 216 220 219 
3 218 204 202 
3 220 218 217 
3 221 203 213 
3 222 213 204 
3 223 224 220 
3 224 222 218 
3 225 221 222 
3 226 236 235 
3 228 230 215 
3 229 227 201 
3 230 229 210 
3 231 199 232 
3 233 232 227 
3 234 235 230 
3 235 233 229 
3 236 231 233 
3 237 239 225 
3 238 228 203 
3 239 238 221 
3 240 226 234 
3 241 234 228 
3 242 243 239 
3 243 241 238 
3 244 240 241 
3 291 247 292 
3 272 249 273 
3 262 252 263 
3 257 251 253 
3 245 255 256 
3 255 257 258 
3 260 261 259 
3 254 256 261 
3 253 262 258 
3 256 258 263 
3 261 263 264 
3 268 246 265 
3 251 266 267 
3 266 268 269 
3 262 271 270 
3 253 267 271 
3 265 272 269 
3 267 269 273 
3 271 273 274 
3 284 283 275 
3 264 252 277 
3 250 259 278 
3 259 264 279 
3 281 282 280 
3 276 278 282 
3 279 277 283 
3 278 279 284 
3 282 284 285 
3 249 286 274 
3 252 270 287 
3 270 274 288 
3 283 290 289 
3 277 287 290 
3 286 291 288 
3 287 288 292 
3 290 292 293 
3 247 293 292 
3 249 274 273 
3 252 264 263 
3 253 258 257 
3 256 254 245 
3 258 256 255 
3 259 250 260 
3 261 260 254 
3 262 263 258 
3 263 261 256 
3 264 259 261 
3 265 269 268 
3 267 253 251 
3 269 267 266 
3 270 252 262 
3 271 262 253 
3 272 273 269 
3 273 271 267 
3 274 270 271 
3 275 285 284 
3 277 279 264 
3 278 276 250 
3 279 278 259 
3 280 248 281 
3 282 281 276 
3 283 284 279 
3 284 282 278 
3 285 280 282 
3 286 288 274 
3 287 277 252 
3 288 287 270 
3 289 275 283 
3 290 283 277 
3 291 292 288 
3 292 290 287 
3 293 289 290 
