ply
format ascii 1.0
comment VCGLIB generated
comment TextureFile test_tex2.jpg
element vertex 8
property float x
property float y
property float z
element face 12
property list uchar int vertex_indices
property list uchar float texcoord
end_header
-12.1802 -5.91724 -4.40218 
12.1802 -5.91724 -4.40218 
-12.1802 -5.91724 4.40218 
12.1802 -5.91724 4.40218 
-12.1802 5.91724 4.40218 
12.1802 5.91724 4.40218 
-12.1802 5.91724 -4.40218 
12.1802 5.91724 -4.40218 
3 0 1 3 6 0.165632 -0.388871 0.853473 -0.38887 0.853473 0.2076 
3 0 3 2 6 0.165632 -0.388871 0.853473 0.2076 0.165633 0.2076 
3 2 3 5 6 0.165633 0.2076 0.853473 0.2076 0.853473 0.80407 
3 2 5 4 6 0.165633 0.2076 0.853473 0.80407 0.165633 0.80407 
3 4 5 7 6 0.165633 0.80407 0.853473 0.80407 0.853473 1.40054 
3 4 7 6 6 0.165633 0.80407 0.853473 1.40054 0.165633 1.40054 
3 6 7 1 6 0.165633 1.40054 0.853473 1.40054 0.853473 1.99701 
3 6 1 0 6 0.165633 1.40054 0.853473 1.99701 0.165632 1.99701 
3 1 7 5 6 0.853473 -0.38887 1.54131 -0.388871 1.54131 0.2076 
3 1 5 3 6 0.853473 -0.38887 1.54131 0.2076 0.853473 0.2076 
3 6 0 2 6 -0.516427 -0.388871 0.165632 -0.388871 0.165633 0.2076 
3 6 2 4 6 -0.516427 -0.388871 0.165633 0.2076 -0.516427 0.2076 
