ply
format ascii 1.0
comment VCGLIB generated
comment TextureFile -clamp
element vertex 411
property float x
property float y
property float z
element face 792
property list uchar int vertex_indices
property list uchar float texcoord
end_header
0.160792 3.41956 5.75181 
0.082847 3.57254 5.75181 
-0.038556 3.69394 5.75181 
-0.191533 3.77189 5.75181 
-0.36111 3.79875 5.75181 
-0.530686 3.77189 5.75181 
-0.683663 3.69394 5.75181 
-0.805066 3.57254 5.75181 
-0.883011 3.41956 5.75181 
-0.90987 3.24999 5.75181 
-0.883011 3.08041 5.75181 
-0.805066 2.92743 5.75181 
-0.683663 2.80603 5.75181 
-0.530686 2.72809 5.75181 
-0.36111 2.70123 5.75181 
-0.191533 2.72809 5.75181 
-0.038557 2.80603 5.75181 
0.082846 2.92743 5.75181 
0.160792 3.08041 5.75181 
0.18765 3.24999 5.75181 
0.669843 3.58496 5.88031 
0.515871 3.88715 5.88031 
0.276054 4.12697 5.88031 
-0.026133 4.28094 5.88031 
-0.36111 4.33399 5.88031 
-0.696087 4.28094 5.88031 
-0.998273 4.12697 5.88031 
-1.23809 3.88715 5.88031 
-1.39206 3.58496 5.88031 
-1.44512 3.24999 5.88031 
-1.39206 2.91501 5.88031 
-1.23809 2.61282 5.88031 
-0.998273 2.37301 5.88031 
-0.696086 2.21903 5.88031 
-0.36111 2.16598 5.88031 
-0.026133 2.21903 5.88031 
0.276054 2.37301 5.88031 
0.515871 2.61282 5.88031 
0.669843 2.91501 5.88031 
0.722898 3.24999 5.88031 
1.15351 3.74212 6.09096 
0.927302 4.18607 6.09096 
0.574976 4.5384 6.09096 
0.13102 4.76461 6.09096 
-0.36111 4.84255 6.09096 
-0.853239 4.76461 6.09096 
-1.29719 4.5384 6.09096 
-1.64952 4.18607 6.09096 
-1.87573 3.74212 6.09096 
-1.95367 3.24999 6.09096 
-1.87573 2.75786 6.09096 
-1.64952 2.3139 6.09096 
-1.29719 1.96158 6.09096 
-0.853239 1.73537 6.09096 
-0.36111 1.65742 6.09096 
0.131019 1.73537 6.09096 
0.574976 1.96158 6.09096 
0.927301 2.3139 6.09096 
1.15351 2.75786 6.09096 
1.23145 3.24999 6.09096 
1.59988 3.88715 6.37857 
1.30701 4.46195 6.37857 
0.850848 4.9181 6.37857 
0.276054 5.21098 6.37857 
-0.36111 5.31189 6.37857 
-0.998274 5.21098 6.37857 
-1.57307 4.9181 6.37857 
-2.02923 4.46194 6.37857 
-2.3221 3.88715 6.37857 
-2.42302 3.24999 6.37857 
-2.3221 2.61282 6.37857 
-2.02923 2.03803 6.37857 
-1.57307 1.58187 6.37857 
-0.998273 1.289 6.37857 
-0.36111 1.18808 6.37857 
0.276054 1.289 6.37857 
0.850847 1.58187 6.37857 
1.30701 2.03803 6.37857 
1.59988 2.61282 6.37857 
1.7008 3.24999 6.37857 
1.99796 4.0165 6.73606 
1.64564 4.70797 6.73606 
1.09688 5.25673 6.73606 
0.4054 5.60906 6.73606 
-0.36111 5.73046 6.73606 
-1.12762 5.60906 6.73606 
-1.8191 5.25673 6.73606 
-2.36786 4.70797 6.73606 
-2.72018 4.0165 6.73606 
-2.84159 3.24999 6.73606 
-2.72018 2.48348 6.73606 
-2.36786 1.792 6.73606 
-1.8191 1.24324 6.73606 
-1.12762 0.890914 6.73606 
-0.36111 0.769511 6.73606 
0.405399 0.890914 6.73606 
1.09688 1.24324 6.73606 
1.64564 1.792 6.73606 
1.99796 2.48348 6.73606 
2.11937 3.24999 6.73606 
2.33796 4.12697 7.15463 
1.93486 4.9181 7.15463 
1.30701 5.54595 7.15463 
0.515871 5.94906 7.15463 
-0.36111 6.08796 7.15463 
-1.23809 5.94906 7.15463 
-2.02923 5.54595 7.15463 
-2.65707 4.9181 7.15463 
-3.06018 4.12697 7.15463 
-3.19908 3.24999 7.15463 
-3.06018 2.37301 7.15463 
-2.65707 1.58187 7.15463 
-2.02923 0.954021 7.15463 
-1.23809 0.550918 7.15463 
-0.36111 0.412018 7.15463 
0.515871 0.550918 7.15463 
1.30701 0.954022 7.15463 
1.93485 1.58187 7.15463 
2.33796 2.37301 7.15463 
2.47686 3.24999 7.15463 
2.6115 4.21585 7.62398 
2.16754 5.08716 7.62398 
1.47606 5.77864 7.62398 
0.604749 6.22259 7.62398 
-0.36111 6.37557 7.62398 
-1.32697 6.22259 7.62398 
-2.19828 5.77864 7.62398 
-2.88976 5.08716 7.62398 
-3.33371 4.21585 7.62398 
-3.48669 3.24999 7.62398 
-3.33371 2.28413 7.62398 
-2.88976 1.41282 7.62398 
-2.19828 0.721338 7.62398 
-1.32697 0.277382 7.62398 
-0.36111 0.124405 7.62398 
0.604748 0.277382 7.62398 
1.47606 0.721338 7.62398 
2.16754 1.41282 7.62398 
2.6115 2.28413 7.62398 
2.76447 3.24999 7.62398 
2.81184 4.28094 8.13253 
2.33796 5.21098 8.13253 
1.59988 5.94906 8.13253 
0.669843 6.42293 8.13253 
-0.36111 6.58622 8.13253 
-1.39206 6.42293 8.13253 
-2.3221 5.94906 8.13253 
-3.06018 5.21098 8.13253 
-3.53406 4.28094 8.13253 
-3.69734 3.24999 8.13253 
-3.53406 2.21903 8.13253 
-3.06018 1.289 8.13253 
-2.3221 0.550918 8.13253 
-1.39206 0.077041 8.13253 
-0.36111 -0.086246 8.13253 
0.669843 0.077041 8.13253 
1.59988 0.550918 8.13253 
2.33796 1.289 8.13253 
2.81184 2.21903 8.13253 
2.97512 3.24999 8.13253 
2.93405 4.32065 8.66778 
2.44192 5.28651 8.66778 
1.67541 6.05302 8.66778 
0.709553 6.54515 8.66778 
-0.36111 6.71472 8.66778 
-1.43177 6.54515 8.66778 
-2.39763 6.05302 8.66778 
-3.16414 5.28651 8.66778 
-3.65627 4.32065 8.66778 
-3.82584 3.24999 8.66778 
-3.65627 2.17933 8.66778 
-3.16414 1.21347 8.66778 
-2.39763 0.446958 8.66778 
-1.43177 -0.045171 8.66778 
-0.36111 -0.214747 8.66778 
0.709552 -0.045171 8.66778 
1.67541 0.446958 8.66778 
2.44192 1.21347 8.66778 
2.93405 2.17933 8.66778 
3.10362 3.24999 8.66778 
2.97512 4.33399 9.21654 
2.47686 5.31189 9.21654 
1.7008 6.08796 9.21654 
0.722898 6.58622 9.21654 
-0.36111 6.75791 9.21654 
-1.44512 6.58622 9.21654 
-2.42302 6.08796 9.21654 
-3.19908 5.31189 9.21654 
-3.69734 4.33399 9.21654 
-3.86903 3.24999 9.21654 
-3.69734 2.16598 9.21654 
-3.19908 1.18808 9.21654 
-2.42302 0.412018 9.21654 
-1.44512 -0.086246 9.21654 
-0.36111 -0.257936 9.21654 
0.722898 -0.086246 9.21654 
1.7008 0.412018 9.21654 
2.47686 1.18808 9.21654 
2.97512 2.16598 9.21654 
3.14681 3.24999 9.21654 
2.93405 4.32065 9.7653 
2.44192 5.28651 9.7653 
1.67541 6.05302 9.7653 
0.709553 6.54515 9.7653 
-0.36111 6.71472 9.7653 
-1.43177 6.54515 9.7653 
-2.39763 6.05302 9.7653 
-3.16414 5.28651 9.7653 
-3.65627 4.32065 9.7653 
-3.82584 3.24999 9.7653 
-3.65627 2.17933 9.7653 
-3.16414 1.21347 9.7653 
-2.39763 0.446958 9.7653 
-1.43177 -0.045171 9.7653 
-0.36111 -0.214747 9.7653 
0.709552 -0.045171 9.7653 
1.67541 0.446958 9.7653 
2.44192 1.21347 9.7653 
2.93405 2.17933 9.7653 
3.10362 3.24999 9.7653 
2.81184 4.28094 10.3005 
2.33796 5.21098 10.3005 
1.59988 5.94906 10.3005 
0.669843 6.42293 10.3005 
-0.36111 6.58622 10.3005 
-1.39206 6.42293 10.3005 
-2.3221 5.94906 10.3005 
-3.06018 5.21098 10.3005 
-3.53406 4.28094 10.3005 
-3.69734 3.24999 10.3005 
-3.53406 2.21903 10.3005 
-3.06018 1.289 10.3005 
-2.3221 0.550918 10.3005 
-1.39206 0.077041 10.3005 
-0.36111 -0.086246 10.3005 
0.669843 0.077041 10.3005 
1.59988 0.550918 10.3005 
2.33796 1.289 10.3005 
2.81184 2.21903 10.3005 
2.97512 3.24999 10.3005 
2.6115 4.21585 10.8091 
2.16754 5.08716 10.8091 
1.47606 5.77864 10.8091 
0.604749 6.22259 10.8091 
-0.36111 6.37557 10.8091 
-1.32697 6.22259 10.8091 
-2.19828 5.77864 10.8091 
-2.88976 5.08716 10.8091 
-3.33371 4.21585 10.8091 
-3.48669 3.24999 10.8091 
-3.33371 2.28413 10.8091 
-2.88976 1.41282 10.8091 
-2.19828 0.721338 10.8091 
-1.32697 0.277382 10.8091 
-0.36111 0.124405 10.8091 
0.604748 0.277382 10.8091 
1.47606 0.721338 10.8091 
2.16754 1.41282 10.8091 
2.6115 2.28413 10.8091 
2.76447 3.24999 10.8091 
2.33796 4.12697 11.2784 
1.93486 4.9181 11.2784 
1.30701 5.54595 11.2784 
0.515871 5.94906 11.2784 
-0.36111 6.08796 11.2784 
-1.23809 5.94906 11.2784 
-2.02923 5.54595 11.2784 
-2.65707 4.9181 11.2784 
-3.06018 4.12697 11.2784 
-3.19908 3.24999 11.2784 
-3.06018 2.37301 11.2784 
-2.65707 1.58187 11.2784 
-2.02923 0.954021 11.2784 
-1.23809 0.550918 11.2784 
-0.36111 0.412018 11.2784 
0.515871 0.550918 11.2784 
1.30701 0.954022 11.2784 
1.93485 1.58187 11.2784 
2.33796 2.37301 11.2784 
2.47686 3.24999 11.2784 
1.99796 4.0165 11.697 
1.64564 4.70797 11.697 
1.09688 5.25673 11.697 
0.4054 5.60906 11.697 
-0.36111 5.73046 11.697 
-1.12762 5.60906 11.697 
-1.8191 5.25673 11.697 
-2.36786 4.70797 11.697 
-2.72018 4.0165 11.697 
-2.84159 3.24999 11.697 
-2.72018 2.48348 11.697 
-2.36786 1.792 11.697 
-1.8191 1.24324 11.697 
-1.12762 0.890914 11.697 
-0.36111 0.769511 11.697 
0.405399 0.890914 11.697 
1.09688 1.24324 11.697 
1.64564 1.792 11.697 
1.99796 2.48348 11.697 
2.11937 3.24999 11.697 
1.59988 3.88715 12.0545 
1.30701 4.46195 12.0545 
0.850848 4.9181 12.0545 
0.276054 5.21098 12.0545 
-0.36111 5.31189 12.0545 
-0.998274 5.21098 12.0545 
-1.57307 4.9181 12.0545 
-2.02923 4.46194 12.0545 
-2.3221 3.88715 12.0545 
-2.42302 3.24999 12.0545 
-2.3221 2.61282 12.0545 
-2.02923 2.03803 12.0545 
-1.57307 1.58187 12.0545 
-0.998273 1.289 12.0545 
-0.36111 1.18808 12.0545 
0.276054 1.289 12.0545 
0.850847 1.58187 12.0545 
1.30701 2.03803 12.0545 
1.59988 2.61282 12.0545 
1.7008 3.24999 12.0545 
1.15351 3.74212 12.3421 
0.927302 4.18607 12.3421 
0.574976 4.5384 12.3421 
0.13102 4.76461 12.3421 
-0.36111 4.84255 12.3421 
-0.853239 4.76461 12.3421 
-1.29719 4.5384 12.3421 
-1.64952 4.18607 12.3421 
-1.87573 3.74212 12.3421 
-1.95367 3.24999 12.3421 
-1.87573 2.75786 12.3421 
-1.64952 2.3139 12.3421 
-1.29719 1.96158 12.3421 
-0.853239 1.73537 12.3421 
-0.36111 1.65742 12.3421 
0.131019 1.73537 12.3421 
0.574976 1.96158 12.3421 
0.927301 2.3139 12.3421 
1.15351 2.75786 12.3421 
1.23145 3.24999 12.3421 
0.669843 3.58496 12.5528 
0.515871 3.88715 12.5528 
0.276054 4.12697 12.5528 
-0.026133 4.28094 12.5528 
-0.36111 4.33399 12.5528 
-0.696087 4.28094 12.5528 
-0.998273 4.12697 12.5528 
-1.23809 3.88715 12.5528 
-1.39206 3.58496 12.5528 
-1.44512 3.24999 12.5528 
-1.39206 2.91501 12.5528 
-1.23809 2.61282 12.5528 
-0.998273 2.37301 12.5528 
-0.696086 2.21903 12.5528 
-0.36111 2.16598 12.5528 
-0.026133 2.21903 12.5528 
0.276054 2.37301 12.5528 
0.515871 2.61282 12.5528 
0.669843 2.91501 12.5528 
0.722898 3.24999 12.5528 
0.160792 3.41956 12.6813 
0.082847 3.57254 12.6813 
-0.038556 3.69394 12.6813 
-0.191533 3.77189 12.6813 
-0.36111 3.79875 12.6813 
-0.530686 3.77189 12.6813 
-0.683663 3.69394 12.6813 
-0.805066 3.57254 12.6813 
-0.883011 3.41956 12.6813 
-0.90987 3.24999 12.6813 
-0.883011 3.08041 12.6813 
-0.805066 2.92743 12.6813 
-0.683663 2.80603 12.6813 
-0.530686 2.72809 12.6813 
-0.36111 2.70123 12.6813 
-0.191533 2.72809 12.6813 
-0.038557 2.80603 12.6813 
0.082846 2.92743 12.6813 
0.160792 3.08041 12.6813 
0.18765 3.24999 12.6813 
-0.36111 3.24999 5.70862 
-0.36111 3.24999 12.7245 
-31.0738 -9.70448 8.80588 
30.6106 -9.70448 8.80588 
-31.0738 2.16782 8.80588 
30.6106 2.16782 8.80588 
-31.0738 2.16782 1.19591 
30.6106 2.16782 1.19591 
-31.0738 -9.70448 1.19591 
30.6106 -9.70448 1.19591 
-12.5364 -9.6876 8.73767 
11.824 -9.6876 8.73767 
-12.5364 -9.6876 14.9045 
11.824 -9.6876 14.9045 
-12.5364 2.14688 14.9045 
11.824 2.14688 14.9045 
-12.5364 2.14688 8.73767 
11.824 2.14688 8.73767 
-12.5364 -9.6876 14.9045 
11.824 -9.6876 14.9045 
11.824 2.14688 14.9045 
-12.5364 2.14688 14.9045 
-12.4608 2.11862 5.18949 
11.8938 2.11862 5.18949 
-0.283504 4.74877 5.18949 
-12.4608 2.11862 14.9407 
11.8938 2.11862 14.9407 
-0.283504 4.74877 14.9407 
-12.4341 2.1215 14.9372 
11.8671 2.1215 14.9372 
-0.283505 4.74589 14.9372 
3 0 1 21 6 0 0.05 0.05 0.05 0.05 0.1 
3 0 21 20 6 0 0.05 0.05 0.1 0 0.1 
3 1 2 22 6 0.05 0.05 0.1 0.05 0.1 0.1 
3 1 22 21 6 0.05 0.05 0.1 0.1 0.05 0.1 
3 2 3 23 6 0.1 0.05 0.15 0.05 0.15 0.1 
3 2 23 22 6 0.1 0.05 0.15 0.1 0.1 0.1 
3 3 4 24 6 0.15 0.05 0.2 0.05 0.2 0.1 
3 3 24 23 6 0.15 0.05 0.2 0.1 0.15 0.1 
3 4 5 25 6 0.2 0.05 0.25 0.05 0.25 0.1 
3 4 25 24 6 0.2 0.05 0.25 0.1 0.2 0.1 
3 5 6 26 6 0.25 0.05 0.3 0.05 0.3 0.1 
3 5 26 25 6 0.25 0.05 0.3 0.1 0.25 0.1 
3 6 7 27 6 0.3 0.05 0.35 0.05 0.35 0.1 
3 6 27 26 6 0.3 0.05 0.35 0.1 0.3 0.1 
3 7 8 28 6 0.35 0.05 0.4 0.05 0.4 0.1 
3 7 28 27 6 0.35 0.05 0.4 0.1 0.35 0.1 
3 8 9 29 6 0.4 0.05 0.45 0.05 0.45 0.1 
3 8 29 28 6 0.4 0.05 0.45 0.1 0.4 0.1 
3 9 10 30 6 0.45 0.05 0.5 0.05 0.5 0.1 
3 9 30 29 6 0.45 0.05 0.5 0.1 0.45 0.1 
3 10 11 31 6 0.5 0.05 0.55 0.05 0.55 0.1 
3 10 31 30 6 0.5 0.05 0.55 0.1 0.5 0.1 
3 11 12 32 6 0.55 0.05 0.6 0.05 0.6 0.1 
3 11 32 31 6 0.55 0.05 0.6 0.1 0.55 0.1 
3 12 13 33 6 0.6 0.05 0.65 0.05 0.65 0.1 
3 12 33 32 6 0.6 0.05 0.65 0.1 0.6 0.1 
3 13 14 34 6 0.65 0.05 0.7 0.05 0.7 0.1 
3 13 34 33 6 0.65 0.05 0.7 0.1 0.65 0.1 
3 14 15 35 6 0.7 0.05 0.75 0.05 0.75 0.1 
3 14 35 34 6 0.7 0.05 0.75 0.1 0.7 0.1 
3 15 16 36 6 0.75 0.05 0.8 0.05 0.8 0.1 
3 15 36 35 6 0.75 0.05 0.8 0.1 0.75 0.1 
3 16 17 37 6 0.8 0.05 0.85 0.05 0.85 0.1 
3 16 37 36 6 0.8 0.05 0.85 0.1 0.8 0.1 
3 17 18 38 6 0.85 0.05 0.9 0.05 0.9 0.1 
3 17 38 37 6 0.85 0.05 0.9 0.1 0.85 0.1 
3 18 19 39 6 0.9 0.05 0.95 0.05 0.95 0.1 
3 18 39 38 6 0.9 0.05 0.95 0.1 0.9 0.1 
3 19 0 20 6 0.95 0.05 1 0.05 1 0.1 
3 19 20 39 6 0.95 0.05 1 0.1 0.95 0.1 
3 20 21 41 6 0 0.1 0.05 0.1 0.05 0.15 
3 20 41 40 6 0 0.1 0.05 0.15 0 0.15 
3 21 22 42 6 0.05 0.1 0.1 0.1 0.1 0.15 
3 21 42 41 6 0.05 0.1 0.1 0.15 0.05 0.15 
3 22 23 43 6 0.1 0.1 0.15 0.1 0.15 0.15 
3 22 43 42 6 0.1 0.1 0.15 0.15 0.1 0.15 
3 23 24 44 6 0.15 0.1 0.2 0.1 0.2 0.15 
3 23 44 43 6 0.15 0.1 0.2 0.15 0.15 0.15 
3 24 25 45 6 0.2 0.1 0.25 0.1 0.25 0.15 
3 24 45 44 6 0.2 0.1 0.25 0.15 0.2 0.15 
3 25 26 46 6 0.25 0.1 0.3 0.1 0.3 0.15 
3 25 46 45 6 0.25 0.1 0.3 0.15 0.25 0.15 
3 26 27 47 6 0.3 0.1 0.35 0.1 0.35 0.15 
3 26 47 46 6 0.3 0.1 0.35 0.15 0.3 0.15 
3 27 28 48 6 0.35 0.1 0.4 0.1 0.4 0.15 
3 27 48 47 6 0.35 0.1 0.4 0.15 0.35 0.15 
3 28 29 49 6 0.4 0.1 0.45 0.1 0.45 0.15 
3 28 49 48 6 0.4 0.1 0.45 0.15 0.4 0.15 
3 29 30 50 6 0.45 0.1 0.5 0.1 0.5 0.15 
3 29 50 49 6 0.45 0.1 0.5 0.15 0.45 0.15 
3 30 31 51 6 0.5 0.1 0.55 0.1 0.55 0.15 
3 30 51 50 6 0.5 0.1 0.55 0.15 0.5 0.15 
3 31 32 52 6 0.55 0.1 0.6 0.1 0.6 0.15 
3 31 52 51 6 0.55 0.1 0.6 0.15 0.55 0.15 
3 32 33 53 6 0.6 0.1 0.65 0.1 0.65 0.15 
3 32 53 52 6 0.6 0.1 0.65 0.15 0.6 0.15 
3 33 34 54 6 0.65 0.1 0.7 0.1 0.7 0.15 
3 33 54 53 6 0.65 0.1 0.7 0.15 0.65 0.15 
3 34 35 55 6 0.7 0.1 0.75 0.1 0.75 0.15 
3 34 55 54 6 0.7 0.1 0.75 0.15 0.7 0.15 
3 35 36 56 6 0.75 0.1 0.8 0.1 0.8 0.15 
3 35 56 55 6 0.75 0.1 0.8 0.15 0.75 0.15 
3 36 37 57 6 0.8 0.1 0.85 0.1 0.85 0.15 
3 36 57 56 6 0.8 0.1 0.85 0.15 0.8 0.15 
3 37 38 58 6 0.85 0.1 0.9 0.1 0.9 0.15 
3 37 58 57 6 0.85 0.1 0.9 0.15 0.85 0.15 
3 38 39 59 6 0.9 0.1 0.95 0.1 0.95 0.15 
3 38 59 58 6 0.9 0.1 0.95 0.15 0.9 0.15 
3 39 20 40 6 0.95 0.1 1 0.1 1 0.15 
3 39 40 59 6 0.95 0.1 1 0.15 0.95 0.15 
3 40 41 61 6 0 0.15 0.05 0.15 0.05 0.2 
3 40 61 60 6 0 0.15 0.05 0.2 0 0.2 
3 41 42 62 6 0.05 0.15 0.1 0.15 0.1 0.2 
3 41 62 61 6 0.05 0.15 0.1 0.2 0.05 0.2 
3 42 43 63 6 0.1 0.15 0.15 0.15 0.15 0.2 
3 42 63 62 6 0.1 0.15 0.15 0.2 0.1 0.2 
3 43 44 64 6 0.15 0.15 0.2 0.15 0.2 0.2 
3 43 64 63 6 0.15 0.15 0.2 0.2 0.15 0.2 
3 44 45 65 6 0.2 0.15 0.25 0.15 0.25 0.2 
3 44 65 64 6 0.2 0.15 0.25 0.2 0.2 0.2 
3 45 46 66 6 0.25 0.15 0.3 0.15 0.3 0.2 
3 45 66 65 6 0.25 0.15 0.3 0.2 0.25 0.2 
3 46 47 67 6 0.3 0.15 0.35 0.15 0.35 0.2 
3 46 67 66 6 0.3 0.15 0.35 0.2 0.3 0.2 
3 47 48 68 6 0.35 0.15 0.4 0.15 0.4 0.2 
3 47 68 67 6 0.35 0.15 0.4 0.2 0.35 0.2 
3 48 49 69 6 0.4 0.15 0.45 0.15 0.45 0.2 
3 48 69 68 6 0.4 0.15 0.45 0.2 0.4 0.2 
3 49 50 70 6 0.45 0.15 0.5 0.15 0.5 0.2 
3 49 70 69 6 0.45 0.15 0.5 0.2 0.45 0.2 
3 50 51 71 6 0.5 0.15 0.55 0.15 0.55 0.2 
3 50 71 70 6 0.5 0.15 0.55 0.2 0.5 0.2 
3 51 52 72 6 0.55 0.15 0.6 0.15 0.6 0.2 
3 51 72 71 6 0.55 0.15 0.6 0.2 0.55 0.2 
3 52 53 73 6 0.6 0.15 0.65 0.15 0.65 0.2 
3 52 73 72 6 0.6 0.15 0.65 0.2 0.6 0.2 
3 53 54 74 6 0.65 0.15 0.7 0.15 0.7 0.2 
3 53 74 73 6 0.65 0.15 0.7 0.2 0.65 0.2 
3 54 55 75 6 0.7 0.15 0.75 0.15 0.75 0.2 
3 54 75 74 6 0.7 0.15 0.75 0.2 0.7 0.2 
3 55 56 76 6 0.75 0.15 0.8 0.15 0.8 0.2 
3 55 76 75 6 0.75 0.15 0.8 0.2 0.75 0.2 
3 56 57 77 6 0.8 0.15 0.85 0.15 0.85 0.2 
3 56 77 76 6 0.8 0.15 0.85 0.2 0.8 0.2 
3 57 58 78 6 0.85 0.15 0.9 0.15 0.9 0.2 
3 57 78 77 6 0.85 0.15 0.9 0.2 0.85 0.2 
3 58 59 79 6 0.9 0.15 0.95 0.15 0.95 0.2 
3 58 79 78 6 0.9 0.15 0.95 0.2 0.9 0.2 
3 59 40 60 6 0.95 0.15 1 0.15 1 0.2 
3 59 60 79 6 0.95 0.15 1 0.2 0.95 0.2 
3 60 61 81 6 0 0.2 0.05 0.2 0.05 0.25 
3 60 81 80 6 0 0.2 0.05 0.25 0 0.25 
3 61 62 82 6 0.05 0.2 0.1 0.2 0.1 0.25 
3 61 82 81 6 0.05 0.2 0.1 0.25 0.05 0.25 
3 62 63 83 6 0.1 0.2 0.15 0.2 0.15 0.25 
3 62 83 82 6 0.1 0.2 0.15 0.25 0.1 0.25 
3 63 64 84 6 0.15 0.2 0.2 0.2 0.2 0.25 
3 63 84 83 6 0.15 0.2 0.2 0.25 0.15 0.25 
3 64 65 85 6 0.2 0.2 0.25 0.2 0.25 0.25 
3 64 85 84 6 0.2 0.2 0.25 0.25 0.2 0.25 
3 65 66 86 6 0.25 0.2 0.3 0.2 0.3 0.25 
3 65 86 85 6 0.25 0.2 0.3 0.25 0.25 0.25 
3 66 67 87 6 0.3 0.2 0.35 0.2 0.35 0.25 
3 66 87 86 6 0.3 0.2 0.35 0.25 0.3 0.25 
3 67 68 88 6 0.35 0.2 0.4 0.2 0.4 0.25 
3 67 88 87 6 0.35 0.2 0.4 0.25 0.35 0.25 
3 68 69 89 6 0.4 0.2 0.45 0.2 0.45 0.25 
3 68 89 88 6 0.4 0.2 0.45 0.25 0.4 0.25 
3 69 70 90 6 0.45 0.2 0.5 0.2 0.5 0.25 
3 69 90 89 6 0.45 0.2 0.5 0.25 0.45 0.25 
3 70 71 91 6 0.5 0.2 0.55 0.2 0.55 0.25 
3 70 91 90 6 0.5 0.2 0.55 0.25 0.5 0.25 
3 71 72 92 6 0.55 0.2 0.6 0.2 0.6 0.25 
3 71 92 91 6 0.55 0.2 0.6 0.25 0.55 0.25 
3 72 73 93 6 0.6 0.2 0.65 0.2 0.65 0.25 
3 72 93 92 6 0.6 0.2 0.65 0.25 0.6 0.25 
3 73 74 94 6 0.65 0.2 0.7 0.2 0.7 0.25 
3 73 94 93 6 0.65 0.2 0.7 0.25 0.65 0.25 
3 74 75 95 6 0.7 0.2 0.75 0.2 0.75 0.25 
3 74 95 94 6 0.7 0.2 0.75 0.25 0.7 0.25 
3 75 76 96 6 0.75 0.2 0.8 0.2 0.8 0.25 
3 75 96 95 6 0.75 0.2 0.8 0.25 0.75 0.25 
3 76 77 97 6 0.8 0.2 0.85 0.2 0.85 0.25 
3 76 97 96 6 0.8 0.2 0.85 0.25 0.8 0.25 
3 77 78 98 6 0.85 0.2 0.9 0.2 0.9 0.25 
3 77 98 97 6 0.85 0.2 0.9 0.25 0.85 0.25 
3 78 79 99 6 0.9 0.2 0.95 0.2 0.95 0.25 
3 78 99 98 6 0.9 0.2 0.95 0.25 0.9 0.25 
3 79 60 80 6 0.95 0.2 1 0.2 1 0.25 
3 79 80 99 6 0.95 0.2 1 0.25 0.95 0.25 
3 80 81 101 6 0 0.25 0.05 0.25 0.05 0.3 
3 80 101 100 6 0 0.25 0.05 0.3 0 0.3 
3 81 82 102 6 0.05 0.25 0.1 0.25 0.1 0.3 
3 81 102 101 6 0.05 0.25 0.1 0.3 0.05 0.3 
3 82 83 103 6 0.1 0.25 0.15 0.25 0.15 0.3 
3 82 103 102 6 0.1 0.25 0.15 0.3 0.1 0.3 
3 83 84 104 6 0.15 0.25 0.2 0.25 0.2 0.3 
3 83 104 103 6 0.15 0.25 0.2 0.3 0.15 0.3 
3 84 85 105 6 0.2 0.25 0.25 0.25 0.25 0.3 
3 84 105 104 6 0.2 0.25 0.25 0.3 0.2 0.3 
3 85 86 106 6 0.25 0.25 0.3 0.25 0.3 0.3 
3 85 106 105 6 0.25 0.25 0.3 0.3 0.25 0.3 
3 86 87 107 6 0.3 0.25 0.35 0.25 0.35 0.3 
3 86 107 106 6 0.3 0.25 0.35 0.3 0.3 0.3 
3 87 88 108 6 0.35 0.25 0.4 0.25 0.4 0.3 
3 87 108 107 6 0.35 0.25 0.4 0.3 0.35 0.3 
3 88 89 109 6 0.4 0.25 0.45 0.25 0.45 0.3 
3 88 109 108 6 0.4 0.25 0.45 0.3 0.4 0.3 
3 89 90 110 6 0.45 0.25 0.5 0.25 0.5 0.3 
3 89 110 109 6 0.45 0.25 0.5 0.3 0.45 0.3 
3 90 91 111 6 0.5 0.25 0.55 0.25 0.55 0.3 
3 90 111 110 6 0.5 0.25 0.55 0.3 0.5 0.3 
3 91 92 112 6 0.55 0.25 0.6 0.25 0.6 0.3 
3 91 112 111 6 0.55 0.25 0.6 0.3 0.55 0.3 
3 92 93 113 6 0.6 0.25 0.65 0.25 0.65 0.3 
3 92 113 112 6 0.6 0.25 0.65 0.3 0.6 0.3 
3 93 94 114 6 0.65 0.25 0.7 0.25 0.7 0.3 
3 93 114 113 6 0.65 0.25 0.7 0.3 0.65 0.3 
3 94 95 115 6 0.7 0.25 0.75 0.25 0.75 0.3 
3 94 115 114 6 0.7 0.25 0.75 0.3 0.7 0.3 
3 95 96 116 6 0.75 0.25 0.8 0.25 0.8 0.3 
3 95 116 115 6 0.75 0.25 0.8 0.3 0.75 0.3 
3 96 97 117 6 0.8 0.25 0.85 0.25 0.85 0.3 
3 96 117 116 6 0.8 0.25 0.85 0.3 0.8 0.3 
3 97 98 118 6 0.85 0.25 0.9 0.25 0.9 0.3 
3 97 118 117 6 0.85 0.25 0.9 0.3 0.85 0.3 
3 98 99 119 6 0.9 0.25 0.95 0.25 0.95 0.3 
3 98 119 118 6 0.9 0.25 0.95 0.3 0.9 0.3 
3 99 80 100 6 0.95 0.25 1 0.25 1 0.3 
3 99 100 119 6 0.95 0.25 1 0.3 0.95 0.3 
3 100 101 121 6 0 0.3 0.05 0.3 0.05 0.35 
3 100 121 120 6 0 0.3 0.05 0.35 0 0.35 
3 101 102 122 6 0.05 0.3 0.1 0.3 0.1 0.35 
3 101 122 121 6 0.05 0.3 0.1 0.35 0.05 0.35 
3 102 103 123 6 0.1 0.3 0.15 0.3 0.15 0.35 
3 102 123 122 6 0.1 0.3 0.15 0.35 0.1 0.35 
3 103 104 124 6 0.15 0.3 0.2 0.3 0.2 0.35 
3 103 124 123 6 0.15 0.3 0.2 0.35 0.15 0.35 
3 104 105 125 6 0.2 0.3 0.25 0.3 0.25 0.35 
3 104 125 124 6 0.2 0.3 0.25 0.35 0.2 0.35 
3 105 106 126 6 0.25 0.3 0.3 0.3 0.3 0.35 
3 105 126 125 6 0.25 0.3 0.3 0.35 0.25 0.35 
3 106 107 127 6 0.3 0.3 0.35 0.3 0.35 0.35 
3 106 127 126 6 0.3 0.3 0.35 0.35 0.3 0.35 
3 107 108 128 6 0.35 0.3 0.4 0.3 0.4 0.35 
3 107 128 127 6 0.35 0.3 0.4 0.35 0.35 0.35 
3 108 109 129 6 0.4 0.3 0.45 0.3 0.45 0.35 
3 108 129 128 6 0.4 0.3 0.45 0.35 0.4 0.35 
3 109 110 130 6 0.45 0.3 0.5 0.3 0.5 0.35 
3 109 130 129 6 0.45 0.3 0.5 0.35 0.45 0.35 
3 110 111 131 6 0.5 0.3 0.55 0.3 0.55 0.35 
3 110 131 130 6 0.5 0.3 0.55 0.35 0.5 0.35 
3 111 112 132 6 0.55 0.3 0.6 0.3 0.6 0.35 
3 111 132 131 6 0.55 0.3 0.6 0.35 0.55 0.35 
3 112 113 133 6 0.6 0.3 0.65 0.3 0.65 0.35 
3 112 133 132 6 0.6 0.3 0.65 0.35 0.6 0.35 
3 113 114 134 6 0.65 0.3 0.7 0.3 0.7 0.35 
3 113 134 133 6 0.65 0.3 0.7 0.35 0.65 0.35 
3 114 115 135 6 0.7 0.3 0.75 0.3 0.75 0.35 
3 114 135 134 6 0.7 0.3 0.75 0.35 0.7 0.35 
3 115 116 136 6 0.75 0.3 0.8 0.3 0.8 0.35 
3 115 136 135 6 0.75 0.3 0.8 0.35 0.75 0.35 
3 116 117 137 6 0.8 0.3 0.85 0.3 0.85 0.35 
3 116 137 136 6 0.8 0.3 0.85 0.35 0.8 0.35 
3 117 118 138 6 0.85 0.3 0.9 0.3 0.9 0.35 
3 117 138 137 6 0.85 0.3 0.9 0.35 0.85 0.35 
3 118 119 139 6 0.9 0.3 0.95 0.3 0.95 0.35 
3 118 139 138 6 0.9 0.3 0.95 0.35 0.9 0.35 
3 119 100 120 6 0.95 0.3 1 0.3 1 0.35 
3 119 120 139 6 0.95 0.3 1 0.35 0.95 0.35 
3 120 121 141 6 0 0.35 0.05 0.35 0.05 0.4 
3 120 141 140 6 0 0.35 0.05 0.4 0 0.4 
3 121 122 142 6 0.05 0.35 0.1 0.35 0.1 0.4 
3 121 142 141 6 0.05 0.35 0.1 0.4 0.05 0.4 
3 122 123 143 6 0.1 0.35 0.15 0.35 0.15 0.4 
3 122 143 142 6 0.1 0.35 0.15 0.4 0.1 0.4 
3 123 124 144 6 0.15 0.35 0.2 0.35 0.2 0.4 
3 123 144 143 6 0.15 0.35 0.2 0.4 0.15 0.4 
3 124 125 145 6 0.2 0.35 0.25 0.35 0.25 0.4 
3 124 145 144 6 0.2 0.35 0.25 0.4 0.2 0.4 
3 125 126 146 6 0.25 0.35 0.3 0.35 0.3 0.4 
3 125 146 145 6 0.25 0.35 0.3 0.4 0.25 0.4 
3 126 127 147 6 0.3 0.35 0.35 0.35 0.35 0.4 
3 126 147 146 6 0.3 0.35 0.35 0.4 0.3 0.4 
3 127 128 148 6 0.35 0.35 0.4 0.35 0.4 0.4 
3 127 148 147 6 0.35 0.35 0.4 0.4 0.35 0.4 
3 128 129 149 6 0.4 0.35 0.45 0.35 0.45 0.4 
3 128 149 148 6 0.4 0.35 0.45 0.4 0.4 0.4 
3 129 130 150 6 0.45 0.35 0.5 0.35 0.5 0.4 
3 129 150 149 6 0.45 0.35 0.5 0.4 0.45 0.4 
3 130 131 151 6 0.5 0.35 0.55 0.35 0.55 0.4 
3 130 151 150 6 0.5 0.35 0.55 0.4 0.5 0.4 
3 131 132 152 6 0.55 0.35 0.6 0.35 0.6 0.4 
3 131 152 151 6 0.55 0.35 0.6 0.4 0.55 0.4 
3 132 133 153 6 0.6 0.35 0.65 0.35 0.65 0.4 
3 132 153 152 6 0.6 0.35 0.65 0.4 0.6 0.4 
3 133 134 154 6 0.65 0.35 0.7 0.35 0.7 0.4 
3 133 154 153 6 0.65 0.35 0.7 0.4 0.65 0.4 
3 134 135 155 6 0.7 0.35 0.75 0.35 0.75 0.4 
3 134 155 154 6 0.7 0.35 0.75 0.4 0.7 0.4 
3 135 136 156 6 0.75 0.35 0.8 0.35 0.8 0.4 
3 135 156 155 6 0.75 0.35 0.8 0.4 0.75 0.4 
3 136 137 157 6 0.8 0.35 0.85 0.35 0.85 0.4 
3 136 157 156 6 0.8 0.35 0.85 0.4 0.8 0.4 
3 137 138 158 6 0.85 0.35 0.9 0.35 0.9 0.4 
3 137 158 157 6 0.85 0.35 0.9 0.4 0.85 0.4 
3 138 139 159 6 0.9 0.35 0.95 0.35 0.95 0.4 
3 138 159 158 6 0.9 0.35 0.95 0.4 0.9 0.4 
3 139 120 140 6 0.95 0.35 1 0.35 1 0.4 
3 139 140 159 6 0.95 0.35 1 0.4 0.95 0.4 
3 140 141 161 6 0 0.4 0.05 0.4 0.05 0.45 
3 140 161 160 6 0 0.4 0.05 0.45 0 0.45 
3 141 142 162 6 0.05 0.4 0.1 0.4 0.1 0.45 
3 141 162 161 6 0.05 0.4 0.1 0.45 0.05 0.45 
3 142 143 163 6 0.1 0.4 0.15 0.4 0.15 0.45 
3 142 163 162 6 0.1 0.4 0.15 0.45 0.1 0.45 
3 143 144 164 6 0.15 0.4 0.2 0.4 0.2 0.45 
3 143 164 163 6 0.15 0.4 0.2 0.45 0.15 0.45 
3 144 145 165 6 0.2 0.4 0.25 0.4 0.25 0.45 
3 144 165 164 6 0.2 0.4 0.25 0.45 0.2 0.45 
3 145 146 166 6 0.25 0.4 0.3 0.4 0.3 0.45 
3 145 166 165 6 0.25 0.4 0.3 0.45 0.25 0.45 
3 146 147 167 6 0.3 0.4 0.35 0.4 0.35 0.45 
3 146 167 166 6 0.3 0.4 0.35 0.45 0.3 0.45 
3 147 148 168 6 0.35 0.4 0.4 0.4 0.4 0.45 
3 147 168 167 6 0.35 0.4 0.4 0.45 0.35 0.45 
3 148 149 169 6 0.4 0.4 0.45 0.4 0.45 0.45 
3 148 169 168 6 0.4 0.4 0.45 0.45 0.4 0.45 
3 149 150 170 6 0.45 0.4 0.5 0.4 0.5 0.45 
3 149 170 169 6 0.45 0.4 0.5 0.45 0.45 0.45 
3 150 151 171 6 0.5 0.4 0.55 0.4 0.55 0.45 
3 150 171 170 6 0.5 0.4 0.55 0.45 0.5 0.45 
3 151 152 172 6 0.55 0.4 0.6 0.4 0.6 0.45 
3 151 172 171 6 0.55 0.4 0.6 0.45 0.55 0.45 
3 152 153 173 6 0.6 0.4 0.65 0.4 0.65 0.45 
3 152 173 172 6 0.6 0.4 0.65 0.45 0.6 0.45 
3 153 154 174 6 0.65 0.4 0.7 0.4 0.7 0.45 
3 153 174 173 6 0.65 0.4 0.7 0.45 0.65 0.45 
3 154 155 175 6 0.7 0.4 0.75 0.4 0.75 0.45 
3 154 175 174 6 0.7 0.4 0.75 0.45 0.7 0.45 
3 155 156 176 6 0.75 0.4 0.8 0.4 0.8 0.45 
3 155 176 175 6 0.75 0.4 0.8 0.45 0.75 0.45 
3 156 157 177 6 0.8 0.4 0.85 0.4 0.85 0.45 
3 156 177 176 6 0.8 0.4 0.85 0.45 0.8 0.45 
3 157 158 178 6 0.85 0.4 0.9 0.4 0.9 0.45 
3 157 178 177 6 0.85 0.4 0.9 0.45 0.85 0.45 
3 158 159 179 6 0.9 0.4 0.95 0.4 0.95 0.45 
3 158 179 178 6 0.9 0.4 0.95 0.45 0.9 0.45 
3 159 140 160 6 0.95 0.4 1 0.4 1 0.45 
3 159 160 179 6 0.95 0.4 1 0.45 0.95 0.45 
3 160 161 181 6 0 0.45 0.05 0.45 0.05 0.5 
3 160 181 180 6 0 0.45 0.05 0.5 0 0.5 
3 161 162 182 6 0.05 0.45 0.1 0.45 0.1 0.5 
3 161 182 181 6 0.05 0.45 0.1 0.5 0.05 0.5 
3 162 163 183 6 0.1 0.45 0.15 0.45 0.15 0.5 
3 162 183 182 6 0.1 0.45 0.15 0.5 0.1 0.5 
3 163 164 184 6 0.15 0.45 0.2 0.45 0.2 0.5 
3 163 184 183 6 0.15 0.45 0.2 0.5 0.15 0.5 
3 164 165 185 6 0.2 0.45 0.25 0.45 0.25 0.5 
3 164 185 184 6 0.2 0.45 0.25 0.5 0.2 0.5 
3 165 166 186 6 0.25 0.45 0.3 0.45 0.3 0.5 
3 165 186 185 6 0.25 0.45 0.3 0.5 0.25 0.5 
3 166 167 187 6 0.3 0.45 0.35 0.45 0.35 0.5 
3 166 187 186 6 0.3 0.45 0.35 0.5 0.3 0.5 
3 167 168 188 6 0.35 0.45 0.4 0.45 0.4 0.5 
3 167 188 187 6 0.35 0.45 0.4 0.5 0.35 0.5 
3 168 169 189 6 0.4 0.45 0.45 0.45 0.45 0.5 
3 168 189 188 6 0.4 0.45 0.45 0.5 0.4 0.5 
3 169 170 190 6 0.45 0.45 0.5 0.45 0.5 0.5 
3 169 190 189 6 0.45 0.45 0.5 0.5 0.45 0.5 
3 170 171 191 6 0.5 0.45 0.55 0.45 0.55 0.5 
3 170 191 190 6 0.5 0.45 0.55 0.5 0.5 0.5 
3 171 172 192 6 0.55 0.45 0.6 0.45 0.6 0.5 
3 171 192 191 6 0.55 0.45 0.6 0.5 0.55 0.5 
3 172 173 193 6 0.6 0.45 0.65 0.45 0.65 0.5 
3 172 193 192 6 0.6 0.45 0.65 0.5 0.6 0.5 
3 173 174 194 6 0.65 0.45 0.7 0.45 0.7 0.5 
3 173 194 193 6 0.65 0.45 0.7 0.5 0.65 0.5 
3 174 175 195 6 0.7 0.45 0.75 0.45 0.75 0.5 
3 174 195 194 6 0.7 0.45 0.75 0.5 0.7 0.5 
3 175 176 196 6 0.75 0.45 0.8 0.45 0.8 0.5 
3 175 196 195 6 0.75 0.45 0.8 0.5 0.75 0.5 
3 176 177 197 6 0.8 0.45 0.85 0.45 0.85 0.5 
3 176 197 196 6 0.8 0.45 0.85 0.5 0.8 0.5 
3 177 178 198 6 0.85 0.45 0.9 0.45 0.9 0.5 
3 177 198 197 6 0.85 0.45 0.9 0.5 0.85 0.5 
3 178 179 199 6 0.9 0.45 0.95 0.45 0.95 0.5 
3 178 199 198 6 0.9 0.45 0.95 0.5 0.9 0.5 
3 179 160 180 6 0.95 0.45 1 0.45 1 0.5 
3 179 180 199 6 0.95 0.45 1 0.5 0.95 0.5 
3 180 181 201 6 0 0.5 0.05 0.5 0.05 0.55 
3 180 201 200 6 0 0.5 0.05 0.55 0 0.55 
3 181 182 202 6 0.05 0.5 0.1 0.5 0.1 0.55 
3 181 202 201 6 0.05 0.5 0.1 0.55 0.05 0.55 
3 182 183 203 6 0.1 0.5 0.15 0.5 0.15 0.55 
3 182 203 202 6 0.1 0.5 0.15 0.55 0.1 0.55 
3 183 184 204 6 0.15 0.5 0.2 0.5 0.2 0.55 
3 183 204 203 6 0.15 0.5 0.2 0.55 0.15 0.55 
3 184 185 205 6 0.2 0.5 0.25 0.5 0.25 0.55 
3 184 205 204 6 0.2 0.5 0.25 0.55 0.2 0.55 
3 185 186 206 6 0.25 0.5 0.3 0.5 0.3 0.55 
3 185 206 205 6 0.25 0.5 0.3 0.55 0.25 0.55 
3 186 187 207 6 0.3 0.5 0.35 0.5 0.35 0.55 
3 186 207 206 6 0.3 0.5 0.35 0.55 0.3 0.55 
3 187 188 208 6 0.35 0.5 0.4 0.5 0.4 0.55 
3 187 208 207 6 0.35 0.5 0.4 0.55 0.35 0.55 
3 188 189 209 6 0.4 0.5 0.45 0.5 0.45 0.55 
3 188 209 208 6 0.4 0.5 0.45 0.55 0.4 0.55 
3 189 190 210 6 0.45 0.5 0.5 0.5 0.5 0.55 
3 189 210 209 6 0.45 0.5 0.5 0.55 0.45 0.55 
3 190 191 211 6 0.5 0.5 0.55 0.5 0.55 0.55 
3 190 211 210 6 0.5 0.5 0.55 0.55 0.5 0.55 
3 191 192 212 6 0.55 0.5 0.6 0.5 0.6 0.55 
3 191 212 211 6 0.55 0.5 0.6 0.55 0.55 0.55 
3 192 193 213 6 0.6 0.5 0.65 0.5 0.65 0.55 
3 192 213 212 6 0.6 0.5 0.65 0.55 0.6 0.55 
3 193 194 214 6 0.65 0.5 0.7 0.5 0.7 0.55 
3 193 214 213 6 0.65 0.5 0.7 0.55 0.65 0.55 
3 194 195 215 6 0.7 0.5 0.75 0.5 0.75 0.55 
3 194 215 214 6 0.7 0.5 0.75 0.55 0.7 0.55 
3 195 196 216 6 0.75 0.5 0.8 0.5 0.8 0.55 
3 195 216 215 6 0.75 0.5 0.8 0.55 0.75 0.55 
3 196 197 217 6 0.8 0.5 0.85 0.5 0.85 0.55 
3 196 217 216 6 0.8 0.5 0.85 0.55 0.8 0.55 
3 197 198 218 6 0.85 0.5 0.9 0.5 0.9 0.55 
3 197 218 217 6 0.85 0.5 0.9 0.55 0.85 0.55 
3 198 199 219 6 0.9 0.5 0.95 0.5 0.95 0.55 
3 198 219 218 6 0.9 0.5 0.95 0.55 0.9 0.55 
3 199 180 200 6 0.95 0.5 1 0.5 1 0.55 
3 199 200 219 6 0.95 0.5 1 0.55 0.95 0.55 
3 200 201 221 6 0 0.55 0.05 0.55 0.05 0.6 
3 200 221 220 6 0 0.55 0.05 0.6 0 0.6 
3 201 202 222 6 0.05 0.55 0.1 0.55 0.1 0.6 
3 201 222 221 6 0.05 0.55 0.1 0.6 0.05 0.6 
3 202 203 223 6 0.1 0.55 0.15 0.55 0.15 0.6 
3 202 223 222 6 0.1 0.55 0.15 0.6 0.1 0.6 
3 203 204 224 6 0.15 0.55 0.2 0.55 0.2 0.6 
3 203 224 223 6 0.15 0.55 0.2 0.6 0.15 0.6 
3 204 205 225 6 0.2 0.55 0.25 0.55 0.25 0.6 
3 204 225 224 6 0.2 0.55 0.25 0.6 0.2 0.6 
3 205 206 226 6 0.25 0.55 0.3 0.55 0.3 0.6 
3 205 226 225 6 0.25 0.55 0.3 0.6 0.25 0.6 
3 206 207 227 6 0.3 0.55 0.35 0.55 0.35 0.6 
3 206 227 226 6 0.3 0.55 0.35 0.6 0.3 0.6 
3 207 208 228 6 0.35 0.55 0.4 0.55 0.4 0.6 
3 207 228 227 6 0.35 0.55 0.4 0.6 0.35 0.6 
3 208 209 229 6 0.4 0.55 0.45 0.55 0.45 0.6 
3 208 229 228 6 0.4 0.55 0.45 0.6 0.4 0.6 
3 209 210 230 6 0.45 0.55 0.5 0.55 0.5 0.6 
3 209 230 229 6 0.45 0.55 0.5 0.6 0.45 0.6 
3 210 211 231 6 0.5 0.55 0.55 0.55 0.55 0.6 
3 210 231 230 6 0.5 0.55 0.55 0.6 0.5 0.6 
3 211 212 232 6 0.55 0.55 0.6 0.55 0.6 0.6 
3 211 232 231 6 0.55 0.55 0.6 0.6 0.55 0.6 
3 212 213 233 6 0.6 0.55 0.65 0.55 0.65 0.6 
3 212 233 232 6 0.6 0.55 0.65 0.6 0.6 0.6 
3 213 214 234 6 0.65 0.55 0.7 0.55 0.7 0.6 
3 213 234 233 6 0.65 0.55 0.7 0.6 0.65 0.6 
3 214 215 235 6 0.7 0.55 0.75 0.55 0.75 0.6 
3 214 235 234 6 0.7 0.55 0.75 0.6 0.7 0.6 
3 215 216 236 6 0.75 0.55 0.8 0.55 0.8 0.6 
3 215 236 235 6 0.75 0.55 0.8 0.6 0.75 0.6 
3 216 217 237 6 0.8 0.55 0.85 0.55 0.85 0.6 
3 216 237 236 6 0.8 0.55 0.85 0.6 0.8 0.6 
3 217 218 238 6 0.85 0.55 0.9 0.55 0.9 0.6 
3 217 238 237 6 0.85 0.55 0.9 0.6 0.85 0.6 
3 218 219 239 6 0.9 0.55 0.95 0.55 0.95 0.6 
3 218 239 238 6 0.9 0.55 0.95 0.6 0.9 0.6 
3 219 200 220 6 0.95 0.55 1 0.55 1 0.6 
3 219 220 239 6 0.95 0.55 1 0.6 0.95 0.6 
3 220 221 241 6 0 0.6 0.05 0.6 0.05 0.65 
3 220 241 240 6 0 0.6 0.05 0.65 0 0.65 
3 221 222 242 6 0.05 0.6 0.1 0.6 0.1 0.65 
3 221 242 241 6 0.05 0.6 0.1 0.65 0.05 0.65 
3 222 223 243 6 0.1 0.6 0.15 0.6 0.15 0.65 
3 222 243 242 6 0.1 0.6 0.15 0.65 0.1 0.65 
3 223 224 244 6 0.15 0.6 0.2 0.6 0.2 0.65 
3 223 244 243 6 0.15 0.6 0.2 0.65 0.15 0.65 
3 224 225 245 6 0.2 0.6 0.25 0.6 0.25 0.65 
3 224 245 244 6 0.2 0.6 0.25 0.65 0.2 0.65 
3 225 226 246 6 0.25 0.6 0.3 0.6 0.3 0.65 
3 225 246 245 6 0.25 0.6 0.3 0.65 0.25 0.65 
3 226 227 247 6 0.3 0.6 0.35 0.6 0.35 0.65 
3 226 247 246 6 0.3 0.6 0.35 0.65 0.3 0.65 
3 227 228 248 6 0.35 0.6 0.4 0.6 0.4 0.65 
3 227 248 247 6 0.35 0.6 0.4 0.65 0.35 0.65 
3 228 229 249 6 0.4 0.6 0.45 0.6 0.45 0.65 
3 228 249 248 6 0.4 0.6 0.45 0.65 0.4 0.65 
3 229 230 250 6 0.45 0.6 0.5 0.6 0.5 0.65 
3 229 250 249 6 0.45 0.6 0.5 0.65 0.45 0.65 
3 230 231 251 6 0.5 0.6 0.55 0.6 0.55 0.65 
3 230 251 250 6 0.5 0.6 0.55 0.65 0.5 0.65 
3 231 232 252 6 0.55 0.6 0.6 0.6 0.6 0.65 
3 231 252 251 6 0.55 0.6 0.6 0.65 0.55 0.65 
3 232 233 253 6 0.6 0.6 0.65 0.6 0.65 0.65 
3 232 253 252 6 0.6 0.6 0.65 0.65 0.6 0.65 
3 233 234 254 6 0.65 0.6 0.7 0.6 0.7 0.65 
3 233 254 253 6 0.65 0.6 0.7 0.65 0.65 0.65 
3 234 235 255 6 0.7 0.6 0.75 0.6 0.75 0.65 
3 234 255 254 6 0.7 0.6 0.75 0.65 0.7 0.65 
3 235 236 256 6 0.75 0.6 0.8 0.6 0.8 0.65 
3 235 256 255 6 0.75 0.6 0.8 0.65 0.75 0.65 
3 236 237 257 6 0.8 0.6 0.85 0.6 0.85 0.65 
3 236 257 256 6 0.8 0.6 0.85 0.65 0.8 0.65 
3 237 238 258 6 0.85 0.6 0.9 0.6 0.9 0.65 
3 237 258 257 6 0.85 0.6 0.9 0.65 0.85 0.65 
3 238 239 259 6 0.9 0.6 0.95 0.6 0.95 0.65 
3 238 259 258 6 0.9 0.6 0.95 0.65 0.9 0.65 
3 239 220 240 6 0.95 0.6 1 0.6 1 0.65 
3 239 240 259 6 0.95 0.6 1 0.65 0.95 0.65 
3 240 241 261 6 0 0.65 0.05 0.65 0.05 0.7 
3 240 261 260 6 0 0.65 0.05 0.7 0 0.7 
3 241 242 262 6 0.05 0.65 0.1 0.65 0.1 0.7 
3 241 262 261 6 0.05 0.65 0.1 0.7 0.05 0.7 
3 242 243 263 6 0.1 0.65 0.15 0.65 0.15 0.7 
3 242 263 262 6 0.1 0.65 0.15 0.7 0.1 0.7 
3 243 244 264 6 0.15 0.65 0.2 0.65 0.2 0.7 
3 243 264 263 6 0.15 0.65 0.2 0.7 0.15 0.7 
3 244 245 265 6 0.2 0.65 0.25 0.65 0.25 0.7 
3 244 265 264 6 0.2 0.65 0.25 0.7 0.2 0.7 
3 245 246 266 6 0.25 0.65 0.3 0.65 0.3 0.7 
3 245 266 265 6 0.25 0.65 0.3 0.7 0.25 0.7 
3 246 247 267 6 0.3 0.65 0.35 0.65 0.35 0.7 
3 246 267 266 6 0.3 0.65 0.35 0.7 0.3 0.7 
3 247 248 268 6 0.35 0.65 0.4 0.65 0.4 0.7 
3 247 268 267 6 0.35 0.65 0.4 0.7 0.35 0.7 
3 248 249 269 6 0.4 0.65 0.45 0.65 0.45 0.7 
3 248 269 268 6 0.4 0.65 0.45 0.7 0.4 0.7 
3 249 250 270 6 0.45 0.65 0.5 0.65 0.5 0.7 
3 249 270 269 6 0.45 0.65 0.5 0.7 0.45 0.7 
3 250 251 271 6 0.5 0.65 0.55 0.65 0.55 0.7 
3 250 271 270 6 0.5 0.65 0.55 0.7 0.5 0.7 
3 251 252 272 6 0.55 0.65 0.6 0.65 0.6 0.7 
3 251 272 271 6 0.55 0.65 0.6 0.7 0.55 0.7 
3 252 253 273 6 0.6 0.65 0.65 0.65 0.65 0.7 
3 252 273 272 6 0.6 0.65 0.65 0.7 0.6 0.7 
3 253 254 274 6 0.65 0.65 0.7 0.65 0.7 0.7 
3 253 274 273 6 0.65 0.65 0.7 0.7 0.65 0.7 
3 254 255 275 6 0.7 0.65 0.75 0.65 0.75 0.7 
3 254 275 274 6 0.7 0.65 0.75 0.7 0.7 0.7 
3 255 256 276 6 0.75 0.65 0.8 0.65 0.8 0.7 
3 255 276 275 6 0.75 0.65 0.8 0.7 0.75 0.7 
3 256 257 277 6 0.8 0.65 0.85 0.65 0.85 0.7 
3 256 277 276 6 0.8 0.65 0.85 0.7 0.8 0.7 
3 257 258 278 6 0.85 0.65 0.9 0.65 0.9 0.7 
3 257 278 277 6 0.85 0.65 0.9 0.7 0.85 0.7 
3 258 259 279 6 0.9 0.65 0.95 0.65 0.95 0.7 
3 258 279 278 6 0.9 0.65 0.95 0.7 0.9 0.7 
3 259 240 260 6 0.95 0.65 1 0.65 1 0.7 
3 259 260 279 6 0.95 0.65 1 0.7 0.95 0.7 
3 260 261 281 6 0 0.7 0.05 0.7 0.05 0.75 
3 260 281 280 6 0 0.7 0.05 0.75 0 0.75 
3 261 262 282 6 0.05 0.7 0.1 0.7 0.1 0.75 
3 261 282 281 6 0.05 0.7 0.1 0.75 0.05 0.75 
3 262 263 283 6 0.1 0.7 0.15 0.7 0.15 0.75 
3 262 283 282 6 0.1 0.7 0.15 0.75 0.1 0.75 
3 263 264 284 6 0.15 0.7 0.2 0.7 0.2 0.75 
3 263 284 283 6 0.15 0.7 0.2 0.75 0.15 0.75 
3 264 265 285 6 0.2 0.7 0.25 0.7 0.25 0.75 
3 264 285 284 6 0.2 0.7 0.25 0.75 0.2 0.75 
3 265 266 286 6 0.25 0.7 0.3 0.7 0.3 0.75 
3 265 286 285 6 0.25 0.7 0.3 0.75 0.25 0.75 
3 266 267 287 6 0.3 0.7 0.35 0.7 0.35 0.75 
3 266 287 286 6 0.3 0.7 0.35 0.75 0.3 0.75 
3 267 268 288 6 0.35 0.7 0.4 0.7 0.4 0.75 
3 267 288 287 6 0.35 0.7 0.4 0.75 0.35 0.75 
3 268 269 289 6 0.4 0.7 0.45 0.7 0.45 0.75 
3 268 289 288 6 0.4 0.7 0.45 0.75 0.4 0.75 
3 269 270 290 6 0.45 0.7 0.5 0.7 0.5 0.75 
3 269 290 289 6 0.45 0.7 0.5 0.75 0.45 0.75 
3 270 271 291 6 0.5 0.7 0.55 0.7 0.55 0.75 
3 270 291 290 6 0.5 0.7 0.55 0.75 0.5 0.75 
3 271 272 292 6 0.55 0.7 0.6 0.7 0.6 0.75 
3 271 292 291 6 0.55 0.7 0.6 0.75 0.55 0.75 
3 272 273 293 6 0.6 0.7 0.65 0.7 0.65 0.75 
3 272 293 292 6 0.6 0.7 0.65 0.75 0.6 0.75 
3 273 274 294 6 0.65 0.7 0.7 0.7 0.7 0.75 
3 273 294 293 6 0.65 0.7 0.7 0.75 0.65 0.75 
3 274 275 295 6 0.7 0.7 0.75 0.7 0.75 0.75 
3 274 295 294 6 0.7 0.7 0.75 0.75 0.7 0.75 
3 275 276 296 6 0.75 0.7 0.8 0.7 0.8 0.75 
3 275 296 295 6 0.75 0.7 0.8 0.75 0.75 0.75 
3 276 277 297 6 0.8 0.7 0.85 0.7 0.85 0.75 
3 276 297 296 6 0.8 0.7 0.85 0.75 0.8 0.75 
3 277 278 298 6 0.85 0.7 0.9 0.7 0.9 0.75 
3 277 298 297 6 0.85 0.7 0.9 0.75 0.85 0.75 
3 278 279 299 6 0.9 0.7 0.95 0.7 0.95 0.75 
3 278 299 298 6 0.9 0.7 0.95 0.75 0.9 0.75 
3 279 260 280 6 0.95 0.7 1 0.7 1 0.75 
3 279 280 299 6 0.95 0.7 1 0.75 0.95 0.75 
3 280 281 301 6 0 0.75 0.05 0.75 0.05 0.8 
3 280 301 300 6 0 0.75 0.05 0.8 0 0.8 
3 281 282 302 6 0.05 0.75 0.1 0.75 0.1 0.8 
3 281 302 301 6 0.05 0.75 0.1 0.8 0.05 0.8 
3 282 283 303 6 0.1 0.75 0.15 0.75 0.15 0.8 
3 282 303 302 6 0.1 0.75 0.15 0.8 0.1 0.8 
3 283 284 304 6 0.15 0.75 0.2 0.75 0.2 0.8 
3 283 304 303 6 0.15 0.75 0.2 0.8 0.15 0.8 
3 284 285 305 6 0.2 0.75 0.25 0.75 0.25 0.8 
3 284 305 304 6 0.2 0.75 0.25 0.8 0.2 0.8 
3 285 286 306 6 0.25 0.75 0.3 0.75 0.3 0.8 
3 285 306 305 6 0.25 0.75 0.3 0.8 0.25 0.8 
3 286 287 307 6 0.3 0.75 0.35 0.75 0.35 0.8 
3 286 307 306 6 0.3 0.75 0.35 0.8 0.3 0.8 
3 287 288 308 6 0.35 0.75 0.4 0.75 0.4 0.8 
3 287 308 307 6 0.35 0.75 0.4 0.8 0.35 0.8 
3 288 289 309 6 0.4 0.75 0.45 0.75 0.45 0.8 
3 288 309 308 6 0.4 0.75 0.45 0.8 0.4 0.8 
3 289 290 310 6 0.45 0.75 0.5 0.75 0.5 0.8 
3 289 310 309 6 0.45 0.75 0.5 0.8 0.45 0.8 
3 290 291 311 6 0.5 0.75 0.55 0.75 0.55 0.8 
3 290 311 310 6 0.5 0.75 0.55 0.8 0.5 0.8 
3 291 292 312 6 0.55 0.75 0.6 0.75 0.6 0.8 
3 291 312 311 6 0.55 0.75 0.6 0.8 0.55 0.8 
3 292 293 313 6 0.6 0.75 0.65 0.75 0.65 0.8 
3 292 313 312 6 0.6 0.75 0.65 0.8 0.6 0.8 
3 293 294 314 6 0.65 0.75 0.7 0.75 0.7 0.8 
3 293 314 313 6 0.65 0.75 0.7 0.8 0.65 0.8 
3 294 295 315 6 0.7 0.75 0.75 0.75 0.75 0.8 
3 294 315 314 6 0.7 0.75 0.75 0.8 0.7 0.8 
3 295 296 316 6 0.75 0.75 0.8 0.75 0.8 0.8 
3 295 316 315 6 0.75 0.75 0.8 0.8 0.75 0.8 
3 296 297 317 6 0.8 0.75 0.85 0.75 0.85 0.8 
3 296 317 316 6 0.8 0.75 0.85 0.8 0.8 0.8 
3 297 298 318 6 0.85 0.75 0.9 0.75 0.9 0.8 
3 297 318 317 6 0.85 0.75 0.9 0.8 0.85 0.8 
3 298 299 319 6 0.9 0.75 0.95 0.75 0.95 0.8 
3 298 319 318 6 0.9 0.75 0.95 0.8 0.9 0.8 
3 299 280 300 6 0.95 0.75 1 0.75 1 0.8 
3 299 300 319 6 0.95 0.75 1 0.8 0.95 0.8 
3 300 301 321 6 0 0.8 0.05 0.8 0.05 0.85 
3 300 321 320 6 0 0.8 0.05 0.85 0 0.85 
3 301 302 322 6 0.05 0.8 0.1 0.8 0.1 0.85 
3 301 322 321 6 0.05 0.8 0.1 0.85 0.05 0.85 
3 302 303 323 6 0.1 0.8 0.15 0.8 0.15 0.85 
3 302 323 322 6 0.1 0.8 0.15 0.85 0.1 0.85 
3 303 304 324 6 0.15 0.8 0.2 0.8 0.2 0.85 
3 303 324 323 6 0.15 0.8 0.2 0.85 0.15 0.85 
3 304 305 325 6 0.2 0.8 0.25 0.8 0.25 0.85 
3 304 325 324 6 0.2 0.8 0.25 0.85 0.2 0.85 
3 305 306 326 6 0.25 0.8 0.3 0.8 0.3 0.85 
3 305 326 325 6 0.25 0.8 0.3 0.85 0.25 0.85 
3 306 307 327 6 0.3 0.8 0.35 0.8 0.35 0.85 
3 306 327 326 6 0.3 0.8 0.35 0.85 0.3 0.85 
3 307 308 328 6 0.35 0.8 0.4 0.8 0.4 0.85 
3 307 328 327 6 0.35 0.8 0.4 0.85 0.35 0.85 
3 308 309 329 6 0.4 0.8 0.45 0.8 0.45 0.85 
3 308 329 328 6 0.4 0.8 0.45 0.85 0.4 0.85 
3 309 310 330 6 0.45 0.8 0.5 0.8 0.5 0.85 
3 309 330 329 6 0.45 0.8 0.5 0.85 0.45 0.85 
3 310 311 331 6 0.5 0.8 0.55 0.8 0.55 0.85 
3 310 331 330 6 0.5 0.8 0.55 0.85 0.5 0.85 
3 311 312 332 6 0.55 0.8 0.6 0.8 0.6 0.85 
3 311 332 331 6 0.55 0.8 0.6 0.85 0.55 0.85 
3 312 313 333 6 0.6 0.8 0.65 0.8 0.65 0.85 
3 312 333 332 6 0.6 0.8 0.65 0.85 0.6 0.85 
3 313 314 334 6 0.65 0.8 0.7 0.8 0.7 0.85 
3 313 334 333 6 0.65 0.8 0.7 0.85 0.65 0.85 
3 314 315 335 6 0.7 0.8 0.75 0.8 0.75 0.85 
3 314 335 334 6 0.7 0.8 0.75 0.85 0.7 0.85 
3 315 316 336 6 0.75 0.8 0.8 0.8 0.8 0.85 
3 315 336 335 6 0.75 0.8 0.8 0.85 0.75 0.85 
3 316 317 337 6 0.8 0.8 0.85 0.8 0.85 0.85 
3 316 337 336 6 0.8 0.8 0.85 0.85 0.8 0.85 
3 317 318 338 6 0.85 0.8 0.9 0.8 0.9 0.85 
3 317 338 337 6 0.85 0.8 0.9 0.85 0.85 0.85 
3 318 319 339 6 0.9 0.8 0.95 0.8 0.95 0.85 
3 318 339 338 6 0.9 0.8 0.95 0.85 0.9 0.85 
3 319 300 320 6 0.95 0.8 1 0.8 1 0.85 
3 319 320 339 6 0.95 0.8 1 0.85 0.95 0.85 
3 320 321 341 6 0 0.85 0.05 0.85 0.05 0.9 
3 320 341 340 6 0 0.85 0.05 0.9 0 0.9 
3 321 322 342 6 0.05 0.85 0.1 0.85 0.1 0.9 
3 321 342 341 6 0.05 0.85 0.1 0.9 0.05 0.9 
3 322 323 343 6 0.1 0.85 0.15 0.85 0.15 0.9 
3 322 343 342 6 0.1 0.85 0.15 0.9 0.1 0.9 
3 323 324 344 6 0.15 0.85 0.2 0.85 0.2 0.9 
3 323 344 343 6 0.15 0.85 0.2 0.9 0.15 0.9 
3 324 325 345 6 0.2 0.85 0.25 0.85 0.25 0.9 
3 324 345 344 6 0.2 0.85 0.25 0.9 0.2 0.9 
3 325 326 346 6 0.25 0.85 0.3 0.85 0.3 0.9 
3 325 346 345 6 0.25 0.85 0.3 0.9 0.25 0.9 
3 326 327 347 6 0.3 0.85 0.35 0.85 0.35 0.9 
3 326 347 346 6 0.3 0.85 0.35 0.9 0.3 0.9 
3 327 328 348 6 0.35 0.85 0.4 0.85 0.4 0.9 
3 327 348 347 6 0.35 0.85 0.4 0.9 0.35 0.9 
3 328 329 349 6 0.4 0.85 0.45 0.85 0.45 0.9 
3 328 349 348 6 0.4 0.85 0.45 0.9 0.4 0.9 
3 329 330 350 6 0.45 0.85 0.5 0.85 0.5 0.9 
3 329 350 349 6 0.45 0.85 0.5 0.9 0.45 0.9 
3 330 331 351 6 0.5 0.85 0.55 0.85 0.55 0.9 
3 330 351 350 6 0.5 0.85 0.55 0.9 0.5 0.9 
3 331 332 352 6 0.55 0.85 0.6 0.85 0.6 0.9 
3 331 352 351 6 0.55 0.85 0.6 0.9 0.55 0.9 
3 332 333 353 6 0.6 0.85 0.65 0.85 0.65 0.9 
3 332 353 352 6 0.6 0.85 0.65 0.9 0.6 0.9 
3 333 334 354 6 0.65 0.85 0.7 0.85 0.7 0.9 
3 333 354 353 6 0.65 0.85 0.7 0.9 0.65 0.9 
3 334 335 355 6 0.7 0.85 0.75 0.85 0.75 0.9 
3 334 355 354 6 0.7 0.85 0.75 0.9 0.7 0.9 
3 335 336 356 6 0.75 0.85 0.8 0.85 0.8 0.9 
3 335 356 355 6 0.75 0.85 0.8 0.9 0.75 0.9 
3 336 337 357 6 0.8 0.85 0.85 0.85 0.85 0.9 
3 336 357 356 6 0.8 0.85 0.85 0.9 0.8 0.9 
3 337 338 358 6 0.85 0.85 0.9 0.85 0.9 0.9 
3 337 358 357 6 0.85 0.85 0.9 0.9 0.85 0.9 
3 338 339 359 6 0.9 0.85 0.95 0.85 0.95 0.9 
3 338 359 358 6 0.9 0.85 0.95 0.9 0.9 0.9 
3 339 320 340 6 0.95 0.85 1 0.85 1 0.9 
3 339 340 359 6 0.95 0.85 1 0.9 0.95 0.9 
3 340 341 361 6 0 0.9 0.05 0.9 0.05 0.95 
3 340 361 360 6 0 0.9 0.05 0.95 0 0.95 
3 341 342 362 6 0.05 0.9 0.1 0.9 0.1 0.95 
3 341 362 361 6 0.05 0.9 0.1 0.95 0.05 0.95 
3 342 343 363 6 0.1 0.9 0.15 0.9 0.15 0.95 
3 342 363 362 6 0.1 0.9 0.15 0.95 0.1 0.95 
3 343 344 364 6 0.15 0.9 0.2 0.9 0.2 0.95 
3 343 364 363 6 0.15 0.9 0.2 0.95 0.15 0.95 
3 344 345 365 6 0.2 0.9 0.25 0.9 0.25 0.95 
3 344 365 364 6 0.2 0.9 0.25 0.95 0.2 0.95 
3 345 346 366 6 0.25 0.9 0.3 0.9 0.3 0.95 
3 345 366 365 6 0.25 0.9 0.3 0.95 0.25 0.95 
3 346 347 367 6 0.3 0.9 0.35 0.9 0.35 0.95 
3 346 367 366 6 0.3 0.9 0.35 0.95 0.3 0.95 
3 347 348 368 6 0.35 0.9 0.4 0.9 0.4 0.95 
3 347 368 367 6 0.35 0.9 0.4 0.95 0.35 0.95 
3 348 349 369 6 0.4 0.9 0.45 0.9 0.45 0.95 
3 348 369 368 6 0.4 0.9 0.45 0.95 0.4 0.95 
3 349 350 370 6 0.45 0.9 0.5 0.9 0.5 0.95 
3 349 370 369 6 0.45 0.9 0.5 0.95 0.45 0.95 
3 350 351 371 6 0.5 0.9 0.55 0.9 0.55 0.95 
3 350 371 370 6 0.5 0.9 0.55 0.95 0.5 0.95 
3 351 352 372 6 0.55 0.9 0.6 0.9 0.6 0.95 
3 351 372 371 6 0.55 0.9 0.6 0.95 0.55 0.95 
3 352 353 373 6 0.6 0.9 0.65 0.9 0.65 0.95 
3 352 373 372 6 0.6 0.9 0.65 0.95 0.6 0.95 
3 353 354 374 6 0.65 0.9 0.7 0.9 0.7 0.95 
3 353 374 373 6 0.65 0.9 0.7 0.95 0.65 0.95 
3 354 355 375 6 0.7 0.9 0.75 0.9 0.75 0.95 
3 354 375 374 6 0.7 0.9 0.75 0.95 0.7 0.95 
3 355 356 376 6 0.75 0.9 0.8 0.9 0.8 0.95 
3 355 376 375 6 0.75 0.9 0.8 0.95 0.75 0.95 
3 356 357 377 6 0.8 0.9 0.85 0.9 0.85 0.95 
3 356 377 376 6 0.8 0.9 0.85 0.95 0.8 0.95 
3 357 358 378 6 0.85 0.9 0.9 0.9 0.9 0.95 
3 357 378 377 6 0.85 0.9 0.9 0.95 0.85 0.95 
3 358 359 379 6 0.9 0.9 0.95 0.9 0.95 0.95 
3 358 379 378 6 0.9 0.9 0.95 0.95 0.9 0.95 
3 359 340 360 6 0.95 0.9 1 0.9 1 0.95 
3 359 360 379 6 0.95 0.9 1 0.95 0.95 0.95 
3 1 0 380 6 0.05 0.05 0 0.05 0.025 0 
3 2 1 380 6 0.1 0.05 0.05 0.05 0.075 0 
3 3 2 380 6 0.15 0.05 0.1 0.05 0.125 0 
3 4 3 380 6 0.2 0.05 0.15 0.05 0.175 0 
3 5 4 380 6 0.25 0.05 0.2 0.05 0.225 0 
3 6 5 380 6 0.3 0.05 0.25 0.05 0.275 0 
3 7 6 380 6 0.35 0.05 0.3 0.05 0.325 0 
3 8 7 380 6 0.4 0.05 0.35 0.05 0.375 0 
3 9 8 380 6 0.45 0.05 0.4 0.05 0.425 0 
3 10 9 380 6 0.5 0.05 0.45 0.05 0.475 0 
3 11 10 380 6 0.55 0.05 0.5 0.05 0.525 0 
3 12 11 380 6 0.6 0.05 0.55 0.05 0.575 0 
3 13 12 380 6 0.65 0.05 0.6 0.05 0.625 0 
3 14 13 380 6 0.7 0.05 0.65 0.05 0.675 0 
3 15 14 380 6 0.75 0.05 0.7 0.05 0.725 0 
3 16 15 380 6 0.8 0.05 0.75 0.05 0.775 0 
3 17 16 380 6 0.85 0.05 0.8 0.05 0.825 0 
3 18 17 380 6 0.9 0.05 0.85 0.05 0.875 0 
3 19 18 380 6 0.95 0.05 0.9 0.05 0.925 0 
3 0 19 380 6 1 0.05 0.95 0.05 0.975 0 
3 360 361 381 6 0 0.95 0.05 0.95 0.025 1 
3 361 362 381 6 0.05 0.95 0.1 0.95 0.075 1 
3 362 363 381 6 0.1 0.95 0.15 0.95 0.125 1 
3 363 364 381 6 0.15 0.95 0.2 0.95 0.175 1 
3 364 365 381 6 0.2 0.95 0.25 0.95 0.225 1 
3 365 366 381 6 0.25 0.95 0.3 0.95 0.275 1 
3 366 367 381 6 0.3 0.95 0.35 0.95 0.325 1 
3 367 368 381 6 0.35 0.95 0.4 0.95 0.375 1 
3 368 369 381 6 0.4 0.95 0.45 0.95 0.425 1 
3 369 370 381 6 0.45 0.95 0.5 0.95 0.475 1 
3 370 371 381 6 0.5 0.95 0.55 0.95 0.525 1 
3 371 372 381 6 0.55 0.95 0.6 0.95 0.575 1 
3 372 373 381 6 0.6 0.95 0.65 0.95 0.625 1 
3 373 374 381 6 0.65 0.95 0.7 0.95 0.675 1 
3 374 375 381 6 0.7 0.95 0.75 0.95 0.725 1 
3 375 376 381 6 0.75 0.95 0.8 0.95 0.775 1 
3 376 377 381 6 0.8 0.95 0.85 0.95 0.825 1 
3 377 378 381 6 0.85 0.95 0.9 0.95 0.875 1 
3 378 379 381 6 0.9 0.95 0.95 0.95 0.925 1 
3 379 360 381 6 0.95 0.95 1 0.95 0.975 1 
3 382 383 385 6 0.375 0 0.625 0 0.625 0.25 
3 382 385 384 6 0.375 0 0.625 0.25 0.375 0.25 
3 384 385 387 6 0.375 0.25 0.625 0.25 0.625 0.5 
3 384 387 386 6 0.375 0.25 0.625 0.5 0.375 0.5 
3 386 387 389 6 0.375 0.5 0.625 0.5 0.625 0.75 
3 386 389 388 6 0.375 0.5 0.625 0.75 0.375 0.75 
3 388 389 383 6 0.375 0.75 0.625 0.75 0.625 1 
3 388 383 382 6 0.375 0.75 0.625 1 0.375 1 
3 383 389 387 6 0.625 0 0.875 0 0.875 0.25 
3 383 387 385 6 0.625 0 0.875 0.25 0.625 0.25 
3 388 382 384 6 0.125 0 0.375 0 0.375 0.25 
3 388 384 386 6 0.125 0 0.375 0.25 0.125 0.25 
3 390 391 393 6 0.375 0 0.625 0 0.625 0.25 
3 390 393 392 6 0.375 0 0.625 0.25 0.375 0.25 
3 394 395 397 6 0.375 0.5 0.625 0.5 0.625 0.75 
3 394 397 396 6 0.375 0.5 0.625 0.75 0.375 0.75 
3 396 397 391 6 0.375 0.75 0.625 0.75 0.625 1 
3 396 391 390 6 0.375 0.75 0.625 1 0.375 1 
3 391 397 395 6 0.625 0 0.875 0 0.875 0.25 
3 391 395 393 6 0.625 0 0.875 0.25 0.625 0.25 
3 396 390 392 6 0.125 0 0.375 0 0.375 0.25 
3 396 392 394 6 0.125 0 0.375 0.25 0.125 0.25 
3 398 399 400 6 0.375 0.25 0.625 0.25 0.625 0.5 
3 398 400 401 6 0.375 0.25 0.625 0.5 0.375 0.5 
3 402 403 406 6 0.375 0.3125 0.458333 0.3125 0.458333 0.68844 
3 402 406 405 6 0.375 0.3125 0.458333 0.68844 0.375 0.68844 
3 403 404 407 6 0.458333 0.3125 0.541667 0.3125 0.541667 0.68844 
3 403 407 406 6 0.458333 0.3125 0.541667 0.68844 0.458333 0.68844 
3 404 402 405 6 0.541667 0.3125 0.625 0.3125 0.625 0.68844 
3 404 405 407 6 0.541667 0.3125 0.625 0.68844 0.541667 0.68844 
3 402 404 403 6 0.421875 0.020934 0.65625 0.15625 0.421875 0.291566 
3 408 409 410 6 0.421875 0.979066 0.421875 0.708434 0.65625 0.84375 
