ply
format ascii 1.0
comment VCGLIB generated
comment TextureFile -clamp
element vertex 14
property float x
property float y
property float z
element face 20
property list uchar int vertex_indices
property list uchar float texcoord
end_header
-11.8598 -8.94048 -4.04507 
11.0145 -8.94048 -4.04507 
-11.8598 -8.94048 4.04507 
11.0145 -8.94048 4.04507 
-11.8598 1.86063 4.04507 
11.0145 1.86063 4.04507 
-11.8598 1.86063 -4.04507 
11.0145 1.86063 -4.04507 
-12.4483 1.86422 -4.04313 
11.6949 1.86422 -4.04313 
-0.37672 4.73191 -4.04313 
-12.4483 1.86422 4.04313 
11.6949 1.86422 4.04313 
-0.37672 4.73191 4.04313 
3 0 1 3 6 0.165632 -0.388871 0.853473 -0.38887 0.853473 0.2076 
3 0 3 2 6 0.165632 -0.388871 0.853473 0.2076 0.165633 0.2076 
3 2 3 5 6 0.165633 0.2076 0.853473 0.2076 0.853473 0.80407 
3 2 5 4 6 0.165633 0.2076 0.853473 0.80407 0.165633 0.80407 
3 4 5 7 6 0.165633 0.80407 0.853473 0.80407 0.853473 1.40054 
3 4 7 6 6 0.165633 0.80407 0.853473 1.40054 0.165633 1.40054 
3 6 7 1 6 0.165633 1.40054 0.853473 1.40054 0.853473 1.99701 
3 6 1 0 6 0.165633 1.40054 0.853473 1.99701 0.165632 1.99701 
3 1 7 5 6 0.853473 -0.38887 1.54131 -0.388871 1.54131 0.2076 
3 1 5 3 6 0.853473 -0.38887 1.54131 0.2076 0.853473 0.2076 
3 6 0 2 6 -0.516427 -0.388871 0.165632 -0.388871 0.165633 0.2076 
3 6 2 4 6 -0.516427 -0.388871 0.165633 0.2076 -0.516427 0.2076 
3 8 9 12 6 2.69458 -0.16849 2.69458 0.175698 1.14185 0.175698 
3 8 12 11 6 2.69458 -0.16849 1.14185 0.175698 1.14185 -0.16849 
3 9 10 13 6 2.69458 0.175698 2.69458 0.519887 1.14185 0.519887 
3 9 13 12 6 2.69458 0.175698 1.14185 0.519887 1.14185 0.175698 
3 10 8 11 6 2.69458 0.519887 2.69458 0.864075 1.14185 0.864075 
3 10 11 13 6 2.69458 0.519887 1.14185 0.864075 1.14185 0.519887 
3 8 10 9 6 3.89883 0.025116 3.33994 0.993146 2.78104 0.025116 
3 11 12 13 6 -0.058511 0.025116 1.05927 0.025116 0.500382 0.993146 
